<?xml version="1.0" encoding="utf-8"?>
<!-- Generator: Adobe Illustrator 23.0.4, SVG Export Plug-In . SVG Version: 6.00 Build 0)  -->
<svg version="1.1" id="Layer_1" xmlns="http://www.w3.org/2000/svg" xmlns:xlink="http://www.w3.org/1999/xlink" x="0px" y="0px"
	 viewBox="0 0 125.4 54.3" style="enable-background:new 0 0 125.4 54.3;" width="116" xml:space="preserve">
<style type="text/css">
	.st0{fill:#EF572B;}
	.st1{fill:#9C9EA1;}
	.st2{fill:#7C7977;}
	.st3{fill:#BBBDBF;}
</style>
<g>
	<g>
		<polygon class="st0" points="27.6,47.3 27.1,47.3 27.1,22.2 27.6,22.2 27.6,47.3 		"/>
	</g>
	<g>
		<polygon class="st1" points="27.6,47.3 27.1,47.3 27.1,22.2 27.6,22.2 27.6,47.3 		"/>
	</g>
	<g>
		<g>
			<polygon class="st2" points="54.4,51 54.1,51 54.1,2.5 54.4,2.5 54.4,51 			"/>
		</g>
	</g>
	<path class="st0" d="M27.3,6.1C16.1,6.1,7,15.1,6.7,26.2l1.2,0c0-1.5,0.2-3,0.6-4.4l1.2,0.3c0,0,0,0,0,0c-0.4,1.5-0.6,3-0.6,4.6
		c0,1.8,0.2,3.5,0.7,5.1l1.1-0.3c-0.4-1.5-0.7-3.1-0.7-4.7c0-4,1.3-7.6,3.6-10.5l0.9,0.7l0,0c-2.1,2.7-3.4,6.1-3.4,9.8
		c0,4.7,2.1,8.9,5.3,11.9l0.8-0.9c-0.4-0.4-0.8-0.7-1.2-1.1l0.9-0.8l0,0c0.8,0.9,1.8,1.7,2.9,2.4l0.6-1c-3.5-2.2-5.8-6-5.8-10.4
		c0-6.8,5.5-12.3,12.3-12.3c6.8,0,12.3,5.5,12.3,12.3S34.1,39,27.3,39v8.4c11.4,0,20.6-9.2,20.6-20.6C48,15.4,38.7,6.1,27.3,6.1z"/>
	<path class="st1" d="M27.3,13.3c-7.4,0-13.5,6-13.5,13.4c0,4.8,2.5,9,6.3,11.4l0.6-1c-3.5-2.2-5.8-6-5.8-10.4
		c0-6.8,5.5-12.3,12.3-12.3c6.8,0,12.3,5.5,12.3,12.3S34.1,39,27.3,39v1.2c7.4,0,13.5-6,13.5-13.5C40.8,19.3,34.8,13.3,27.3,13.3z"
		/>
	<path class="st3" d="M27.3,12.1c-8.1,0-14.6,6.6-14.6,14.6c0,3.8,1.4,7.2,3.8,9.8l0.9-0.8c-2.2-2.4-3.5-5.5-3.5-9
		c0-7.4,6-13.4,13.5-13.4c7.4,0,13.5,6,13.5,13.4c0,7.4-6,13.5-13.5,13.5v1.2c8.1,0,14.6-6.6,14.6-14.7C42,18.7,35.4,12.1,27.3,12.1
		z"/>
	<path class="st3" d="M27.3,8.5c-10.1,0-18.2,8.2-18.2,18.2c0,1.8,0.2,3.5,0.7,5.1l1.1-0.3c-0.4-1.5-0.7-3.1-0.7-4.7
		c0-9.4,7.6-17,17-17c9.4,0,17,7.6,17,17s-7.6,17-17,17V45c10.1,0,18.2-8.2,18.2-18.2C45.6,16.7,37.4,8.5,27.3,8.5z"/>
	<path class="st1" d="M27.3,7.3c-9,0-16.6,6.2-18.8,14.5l1.2,0.3c2-7.8,9.2-13.6,17.7-13.6c10.1,0,18.2,8.2,18.2,18.2
		c0,10.1-8.2,18.2-18.2,18.2v1.2c10.7,0,19.4-8.7,19.4-19.4C46.8,16,38.1,7.3,27.3,7.3z"/>
	<g>
		<path class="st3" d="M27.3,6.1C16.1,6.1,7,15.1,6.7,26.2l1.2,0C8.2,15.8,16.8,7.3,27.3,7.3c10.7,0,19.4,8.7,19.4,19.4
			c0,10.7-8.7,19.4-19.4,19.4v1.2c11.4,0,20.6-9.2,20.6-20.6C48,15.4,38.7,6.1,27.3,6.1z"/>
	</g>
	<g>
		<path class="st2" d="M73.1,15.3c-0.6-0.1-1-0.1-1.8-0.1h-2.3c-0.2,0-0.9,0-1.1,0v-0.2c0.4-0.1,0.6-0.4,0.6-0.7V8.3
			c0-0.4-0.2-0.6-0.6-0.7V7.5c0.1,0,1,0,1.2,0c0.2,0,1.2,0,1.3,0v0.2c-0.4,0.1-0.6,0.3-0.6,0.7v6.6h2.1c0.8,0,1.1-0.3,1.4-1l0.2,0
			L73.1,15.3z"/>
		<path class="st2" d="M75.4,15.3c-0.2,0-1.1,0-1.2,0v-0.2c0.4-0.1,0.6-0.3,0.6-0.7V8.3c0-0.4-0.2-0.6-0.6-0.7V7.5c0.1,0,1,0,1.2,0
			c0.2,0,1.2,0,1.3,0v0.2c-0.4,0.1-0.6,0.3-0.6,0.7v6.2c0,0.4,0.3,0.5,0.6,0.7v0.2C76.7,15.3,75.6,15.3,75.4,15.3z"/>
		<path class="st2" d="M86.1,15.3c-0.2,0-0.9,0-1,0v-0.2c0.3-0.1,0.5-0.4,0.5-0.7l-0.4-5.3l-2.5,6.1h-0.4l-2.9-6.1l-0.5,5.4
			c0,0.3,0.2,0.6,0.6,0.7v0.2c-0.1,0-0.7,0-0.9,0c-0.2,0-0.7,0-0.8,0v-0.2c0.3-0.1,0.6-0.4,0.6-0.7l0.5-6c0-0.4-0.2-0.7-0.5-0.8V7.5
			c0.2,0,0.5,0,0.7,0c0.2,0,0.5,0,0.7,0l2.9,6.2l2.6-6.2c0.2,0,0.5,0,0.7,0c0.2,0,0.5,0,0.7,0v0.2c-0.3,0.1-0.5,0.4-0.5,0.8l0.4,6
			c0,0.3,0.2,0.6,0.5,0.7v0.2C87.2,15.3,86.3,15.3,86.1,15.3z"/>
		<path class="st2" d="M94.5,15.3c-0.2,0-1.1,0-1.3,0v-0.2c0.3-0.1,0.4-0.3,0.4-0.5c0-0.1-0.1-0.4-0.1-0.5l-0.5-1.3h-3L89.5,14
			c-0.1,0.1-0.2,0.5-0.2,0.6c0,0.3,0.1,0.4,0.4,0.5v0.2c-0.1,0-0.7,0-0.8,0c-0.2,0-0.6,0-0.8,0v-0.2c0.5-0.2,0.6-0.4,0.8-0.8
			l2.4-6.1c0.1-0.3,0.3-0.9,0.3-0.9h0.7c0,0,0.2,0.6,0.3,0.9l2.3,6.1c0.2,0.5,0.3,0.7,0.8,0.8v0.2C95.4,15.3,94.7,15.3,94.5,15.3z
			 M91.5,9l-1.4,3.5h2.7L91.5,9z"/>
		<path class="st2" d="M101.4,8.8h-0.2c-0.2-0.7-0.5-0.9-1-0.9h-1.7v6.6c0,0.3,0.4,0.6,0.7,0.7v0.2c-0.1,0-1.2,0-1.4,0
			c-0.2,0-1,0-1.2,0v-0.2c0.4-0.1,0.7-0.4,0.7-0.7V7.9h-1.7c-0.5,0-0.8,0.2-1,0.9h-0.2l0-1.4c0.4,0,0.9,0.1,3.4,0.1
			c2.5,0,3.1-0.1,3.5-0.1L101.4,8.8z"/>
		<path class="st2" d="M107.7,15.3c-0.6-0.1-1-0.1-1.8-0.1h-2.5c-0.2,0-0.9,0-1.1,0v-0.2c0.4-0.1,0.6-0.4,0.6-0.7V8.3
			c0-0.3-0.2-0.6-0.6-0.7V7.5h4.8c0.1,0,0.3,0,0.5-0.1h0.2l0,1.3h-0.2c-0.2-0.5-0.5-0.8-1.2-0.8h-2.3V11h2.1c0.3,0,0.5-0.1,0.7-0.4
			h0.2c0,0.1,0,0.5,0,0.6c0,0.1,0,0.5,0,0.6h-0.2c-0.2-0.3-0.4-0.4-0.7-0.4h-2.1v3.5h2.3c0.8,0,1.2-0.2,1.4-0.7l0.2,0L107.7,15.3z"
			/>
		<path class="st2" d="M66.4,15c0,0-0.2,0-0.6,0.1c-0.3,0.1-1.2,0.3-2,0.3c-2.7,0-4.1-1.8-4.1-4c0-2.3,1.6-4,4.1-4
			c0.7,0,1.6,0.2,1.9,0.3c0.3,0.1,0.5,0.1,0.5,0.1L66.4,9h-0.2c-0.2-0.3-0.4-0.6-0.7-0.8c-0.4-0.3-1-0.5-1.6-0.5
			c-1.9,0-2.7,1.7-2.7,3.7c0,1.6,0.7,3.7,2.7,3.7c0.7,0,1.3-0.2,1.7-0.5c0.3-0.2,0.6-0.5,0.7-0.8h0.2L66.4,15z"/>
		<path class="st2" d="M73.1,15.3c-0.6-0.1-1-0.1-1.8-0.1h-2.3c-0.2,0-0.9,0-1.1,0v-0.2c0.4-0.1,0.6-0.4,0.6-0.7V8.3
			c0-0.4-0.2-0.6-0.6-0.7V7.5c0.1,0,1,0,1.2,0c0.2,0,1.2,0,1.3,0v0.2c-0.4,0.1-0.6,0.3-0.6,0.7v6.6h2.1c0.8,0,1.1-0.3,1.4-1l0.2,0
			L73.1,15.3z"/>
		<path class="st2" d="M75.4,15.3c-0.2,0-1.1,0-1.2,0v-0.2c0.4-0.1,0.6-0.3,0.6-0.7V8.3c0-0.4-0.2-0.6-0.6-0.7V7.5c0.1,0,1,0,1.2,0
			c0.2,0,1.2,0,1.3,0v0.2c-0.4,0.1-0.6,0.3-0.6,0.7v6.2c0,0.4,0.3,0.5,0.6,0.7v0.2C76.7,15.3,75.6,15.3,75.4,15.3z"/>
		<path class="st2" d="M86.1,15.3c-0.2,0-0.9,0-1,0v-0.2c0.3-0.1,0.5-0.4,0.5-0.7l-0.4-5.3l-2.5,6.1h-0.4l-2.9-6.1l-0.5,5.4
			c0,0.3,0.2,0.6,0.6,0.7v0.2c-0.1,0-0.7,0-0.9,0c-0.2,0-0.7,0-0.8,0v-0.2c0.3-0.1,0.6-0.4,0.6-0.7l0.5-6c0-0.4-0.2-0.7-0.5-0.8V7.5
			c0.2,0,0.5,0,0.7,0c0.2,0,0.5,0,0.7,0l2.9,6.2l2.6-6.2c0.2,0,0.5,0,0.7,0c0.2,0,0.5,0,0.7,0v0.2c-0.3,0.1-0.5,0.4-0.5,0.8l0.4,6
			c0,0.3,0.2,0.6,0.5,0.7v0.2C87.2,15.3,86.3,15.3,86.1,15.3z"/>
		<path class="st2" d="M94.5,15.3c-0.2,0-1.1,0-1.3,0v-0.2c0.3-0.1,0.4-0.3,0.4-0.5c0-0.1-0.1-0.4-0.1-0.5l-0.5-1.3h-3L89.5,14
			c-0.1,0.1-0.2,0.5-0.2,0.6c0,0.3,0.1,0.4,0.4,0.5v0.2c-0.1,0-0.7,0-0.8,0c-0.2,0-0.6,0-0.8,0v-0.2c0.5-0.2,0.6-0.4,0.8-0.8
			l2.4-6.1c0.1-0.3,0.3-0.9,0.3-0.9h0.7c0,0,0.2,0.6,0.3,0.9l2.3,6.1c0.2,0.5,0.3,0.7,0.8,0.8v0.2C95.4,15.3,94.7,15.3,94.5,15.3z
			 M91.5,9l-1.4,3.5h2.7L91.5,9z"/>
		<path class="st2" d="M101.4,8.8h-0.2c-0.2-0.7-0.5-0.9-1-0.9h-1.7v6.6c0,0.3,0.4,0.6,0.7,0.7v0.2c-0.1,0-1.2,0-1.4,0
			c-0.2,0-1,0-1.2,0v-0.2c0.4-0.1,0.7-0.4,0.7-0.7V7.9h-1.7c-0.5,0-0.8,0.2-1,0.9h-0.2l0-1.4c0.4,0,0.9,0.1,3.4,0.1
			c2.5,0,3.1-0.1,3.5-0.1L101.4,8.8z"/>
		<path class="st2" d="M107.7,15.3c-0.6-0.1-1-0.1-1.8-0.1h-2.5c-0.2,0-0.9,0-1.1,0v-0.2c0.4-0.1,0.6-0.4,0.6-0.7V8.3
			c0-0.3-0.2-0.6-0.6-0.7V7.5h4.8c0.1,0,0.3,0,0.5-0.1h0.2l0,1.3h-0.2c-0.2-0.5-0.5-0.8-1.2-0.8h-2.3V11h2.1c0.3,0,0.5-0.1,0.7-0.4
			h0.2c0,0.1,0,0.5,0,0.6c0,0.1,0,0.5,0,0.6h-0.2c-0.2-0.3-0.4-0.4-0.7-0.4h-2.1v3.5h2.3c0.8,0,1.2-0.2,1.4-0.7l0.2,0L107.7,15.3z"
			/>
		<path class="st2" d="M66.4,15c0,0-0.2,0-0.6,0.1c-0.3,0.1-1.2,0.3-2,0.3c-2.7,0-4.1-1.8-4.1-4c0-2.3,1.6-4,4.1-4
			c0.7,0,1.6,0.2,1.9,0.3c0.3,0.1,0.5,0.1,0.5,0.1L66.4,9h-0.2c-0.2-0.3-0.4-0.6-0.7-0.8c-0.4-0.3-1-0.5-1.6-0.5
			c-1.9,0-2.7,1.7-2.7,3.7c0,1.6,0.7,3.7,2.7,3.7c0.7,0,1.3-0.2,1.7-0.5c0.3-0.2,0.6-0.5,0.7-0.8h0.2L66.4,15z"/>
	</g>
	<g>
		<path class="st2" d="M62.8,25.4c-0.4,0-0.9,0-1.2-0.1v2.6c0,0.3,0.2,0.6,0.6,0.7v0.2c-0.1,0-0.9,0-1.1,0c-0.2,0-1.1,0-1.2,0v-0.2
			c0.4-0.1,0.6-0.4,0.6-0.7v-6.2c0-0.3-0.2-0.6-0.6-0.7v-0.2c0.1,0,1.1,0,1.3,0c0.4,0,1.3-0.1,1.8-0.1c1.4,0,2.7,0.7,2.7,2.3
			C65.6,24.5,64.4,25.4,62.8,25.4z M62.5,21.3c-0.3,0-0.7,0-0.9,0.1v3.6c0.2,0,0.6,0.1,1,0.1c1.4,0,1.8-0.9,1.8-1.8
			C64.4,22,63.7,21.3,62.5,21.3z"/>
		<path class="st2" d="M70.4,28.9c-2.4,0-3.9-1.8-3.9-4c0-2.2,1.5-4.1,3.9-4.1c2.4,0,3.8,1.9,3.8,4.1C74.2,27,72.7,28.9,70.4,28.9z
			 M70.4,21.2c-1.9,0-2.4,1.9-2.4,3.7c0,1.8,0.5,3.6,2.4,3.6c1.9,0,2.4-1.8,2.4-3.6C72.8,23,72.3,21.2,70.4,21.2z"/>
		<path class="st2" d="M98.5,22.2l-1.8,2.9v2.9c0,0.3,0.2,0.6,0.6,0.7v0.2c-0.2,0-0.9,0-1.1,0c-0.2,0-0.9,0-1.1,0v-0.2
			c0.4-0.1,0.6-0.4,0.6-0.7v-2.8l-2-3.1c-0.3-0.4-0.6-0.8-0.9-0.9v-0.2c0.2,0,0.9,0,1.1,0c0.2,0,0.9,0,1.1,0v0.2
			c-0.1,0-0.2,0.2-0.2,0.3c0,0.1,0,0.3,0.1,0.5l1.7,2.7l1.7-2.6c0.2-0.3,0.2-0.4,0.2-0.6c0-0.1-0.1-0.2-0.3-0.2v-0.2
			c0.2,0,0.7,0,0.9,0c0.2,0,0.7,0,0.8,0v0.2C99.2,21.3,98.8,21.7,98.5,22.2z"/>
		<path class="st2" d="M80.4,28.8c-0.6-0.1-1-0.1-1.8-0.1h-2.3c-0.2,0-0.9,0-1.1,0v-0.2c0.4-0.1,0.6-0.4,0.6-0.7v-6.2
			c0-0.4-0.2-0.6-0.6-0.7v-0.2c0.1,0,1,0,1.2,0c0.2,0,1.2,0,1.3,0v0.2c-0.4,0.1-0.6,0.3-0.6,0.7v6.6H79c0.8,0,1.1-0.3,1.4-1l0.2,0
			L80.4,28.8z"/>
		<path class="st2" d="M82.8,28.7c-0.2,0-1.1,0-1.2,0v-0.2c0.4-0.1,0.6-0.3,0.6-0.7v-6.2c0-0.4-0.2-0.6-0.6-0.7v-0.2
			c0.1,0,1,0,1.2,0c0.2,0,1.2,0,1.3,0v0.2c-0.4,0.1-0.6,0.3-0.6,0.7v6.2c0,0.4,0.3,0.5,0.6,0.7v0.2C84,28.8,82.9,28.7,82.8,28.7z"/>
		<path class="st2" d="M91.7,28.5c0,0-0.2,0-0.5,0.1c-0.3,0.1-1.2,0.3-2,0.3c-2.7,0-4.1-1.8-4.1-4c0-2.3,1.6-4,4.1-4
			c0.7,0,1.6,0.2,1.9,0.3c0.3,0.1,0.5,0.1,0.5,0.1l0.1,1.3h-0.2c-0.2-0.3-0.4-0.6-0.7-0.8c-0.4-0.3-1-0.5-1.6-0.5
			c-1.9,0-2.7,1.7-2.7,3.7c0,1.6,0.7,3.7,2.7,3.7c0.7,0,1.3-0.2,1.7-0.5c0.3-0.2,0.6-0.4,0.7-0.8h0.2L91.7,28.5z"/>
		<path class="st2" d="M62.8,25.4c-0.4,0-0.9,0-1.2-0.1v2.6c0,0.3,0.2,0.6,0.6,0.7v0.2c-0.1,0-0.9,0-1.1,0c-0.2,0-1.1,0-1.2,0v-0.2
			c0.4-0.1,0.6-0.4,0.6-0.7v-6.2c0-0.3-0.2-0.6-0.6-0.7v-0.2c0.1,0,1.1,0,1.3,0c0.4,0,1.3-0.1,1.8-0.1c1.4,0,2.7,0.7,2.7,2.3
			C65.6,24.5,64.4,25.4,62.8,25.4z M62.5,21.3c-0.3,0-0.7,0-0.9,0.1v3.6c0.2,0,0.6,0.1,1,0.1c1.4,0,1.8-0.9,1.8-1.8
			C64.4,22,63.7,21.3,62.5,21.3z"/>
		<path class="st2" d="M70.4,28.9c-2.4,0-3.9-1.8-3.9-4c0-2.2,1.5-4.1,3.9-4.1c2.4,0,3.8,1.9,3.8,4.1C74.2,27,72.7,28.9,70.4,28.9z
			 M70.4,21.2c-1.9,0-2.4,1.9-2.4,3.7c0,1.8,0.5,3.6,2.4,3.6c1.9,0,2.4-1.8,2.4-3.6C72.8,23,72.3,21.2,70.4,21.2z"/>
		<path class="st2" d="M98.5,22.2l-1.8,2.9v2.9c0,0.3,0.2,0.6,0.6,0.7v0.2c-0.2,0-0.9,0-1.1,0c-0.2,0-0.9,0-1.1,0v-0.2
			c0.4-0.1,0.6-0.4,0.6-0.7v-2.8l-2-3.1c-0.3-0.4-0.6-0.8-0.9-0.9v-0.2c0.2,0,0.9,0,1.1,0c0.2,0,0.9,0,1.1,0v0.2
			c-0.1,0-0.2,0.2-0.2,0.3c0,0.1,0,0.3,0.1,0.5l1.7,2.7l1.7-2.6c0.2-0.3,0.2-0.4,0.2-0.6c0-0.1-0.1-0.2-0.3-0.2v-0.2
			c0.2,0,0.7,0,0.9,0c0.2,0,0.7,0,0.8,0v0.2C99.2,21.3,98.8,21.7,98.5,22.2z"/>
		<path class="st2" d="M80.4,28.8c-0.6-0.1-1-0.1-1.8-0.1h-2.3c-0.2,0-0.9,0-1.1,0v-0.2c0.4-0.1,0.6-0.4,0.6-0.7v-6.2
			c0-0.4-0.2-0.6-0.6-0.7v-0.2c0.1,0,1,0,1.2,0c0.2,0,1.2,0,1.3,0v0.2c-0.4,0.1-0.6,0.3-0.6,0.7v6.6H79c0.8,0,1.1-0.3,1.4-1l0.2,0
			L80.4,28.8z"/>
		<path class="st2" d="M82.8,28.7c-0.2,0-1.1,0-1.2,0v-0.2c0.4-0.1,0.6-0.3,0.6-0.7v-6.2c0-0.4-0.2-0.6-0.6-0.7v-0.2
			c0.1,0,1,0,1.2,0c0.2,0,1.2,0,1.3,0v0.2c-0.4,0.1-0.6,0.3-0.6,0.7v6.2c0,0.4,0.3,0.5,0.6,0.7v0.2C84,28.8,82.9,28.7,82.8,28.7z"/>
		<path class="st2" d="M91.7,28.5c0,0-0.2,0-0.5,0.1c-0.3,0.1-1.2,0.3-2,0.3c-2.7,0-4.1-1.8-4.1-4c0-2.3,1.6-4,4.1-4
			c0.7,0,1.6,0.2,1.9,0.3c0.3,0.1,0.5,0.1,0.5,0.1l0.1,1.3h-0.2c-0.2-0.3-0.4-0.6-0.7-0.8c-0.4-0.3-1-0.5-1.6-0.5
			c-1.9,0-2.7,1.7-2.7,3.7c0,1.6,0.7,3.7,2.7,3.7c0.7,0,1.3-0.2,1.7-0.5c0.3-0.2,0.6-0.4,0.7-0.8h0.2L91.7,28.5z"/>
	</g>
	<g>
		<path class="st2" d="M70.3,35.7v7.2h-0.1c0,0-0.7-0.5-1-0.9l-4.7-5.6v5.6c0,0.4,0.2,0.6,0.6,0.7v0.2c-0.1,0-0.7,0-0.9,0
			c-0.2,0-0.7,0-0.8,0v-0.2c0.4-0.1,0.6-0.3,0.6-0.7v-6c0-0.4-0.2-0.7-0.5-0.8v-0.2c0.2,0,0.3,0,0.5,0c0.2,0,0.5,0,0.7,0l5.1,5.8v-5
			c0-0.4-0.2-0.6-0.6-0.7v-0.2c0.1,0,0.7,0,0.9,0c0.2,0,0.7,0,0.8,0V35C70.6,35.1,70.3,35.3,70.3,35.7z"/>
		<path class="st2" d="M111.7,35.7l-2.9,7.2h-0.5l-2.7-7.2c-0.2-0.4-0.3-0.5-0.6-0.6v-0.2c0.2,0,0.9,0,1.1,0c0.2,0,1.1,0,1.3,0V35
			c-0.2,0-0.5,0.2-0.5,0.4c0,0.1,0.1,0.3,0.1,0.4l2,5.3l2.2-5.2c0.1-0.2,0.1-0.5,0.1-0.6c0-0.2-0.1-0.3-0.4-0.4v-0.2
			c0.2,0,0.5,0,0.7,0c0.2,0,0.7,0,0.9,0V35C112,35.1,111.8,35.3,111.7,35.7z"/>
		<path class="st2" d="M61,42.7c-0.2,0-1.1,0-1.2,0v-0.2c0.4-0.1,0.6-0.3,0.6-0.7v-6.2c0-0.4-0.2-0.6-0.6-0.7v-0.2c0.1,0,1,0,1.2,0
			c0.2,0,1.2,0,1.3,0V35c-0.4,0.1-0.7,0.3-0.7,0.7v6.2c0,0.4,0.3,0.5,0.7,0.7v0.2C62.2,42.7,61.1,42.7,61,42.7z"/>
		<path class="st2" d="M73.3,42.7c-0.2,0-1.1,0-1.2,0v-0.2c0.4-0.1,0.6-0.3,0.6-0.7v-6.2c0-0.4-0.2-0.6-0.6-0.7v-0.2
			c0.1,0,1,0,1.2,0c0.2,0,1.2,0,1.3,0V35c-0.4,0.1-0.6,0.3-0.6,0.7v6.2c0,0.4,0.3,0.5,0.6,0.7v0.2C74.5,42.7,73.4,42.7,73.3,42.7z"
			/>
		<path class="st2" d="M84.8,42.7c-0.2,0-1.1,0-1.2,0v-0.2c0.4-0.1,0.6-0.3,0.6-0.7v-6.2c0-0.4-0.2-0.6-0.6-0.7v-0.2
			c0.1,0,1,0,1.2,0c0.2,0,1.2,0,1.3,0V35c-0.4,0.1-0.6,0.3-0.6,0.7v6.2c0,0.4,0.3,0.5,0.6,0.7v0.2C86,42.7,85,42.7,84.8,42.7z"/>
		<path class="st2" d="M102.7,42.7c-0.2,0-1.1,0-1.2,0v-0.2c0.4-0.1,0.6-0.3,0.6-0.7v-6.2c0-0.4-0.2-0.6-0.6-0.7v-0.2
			c0.1,0,1,0,1.2,0c0.2,0,1.2,0,1.3,0V35c-0.4,0.1-0.6,0.3-0.6,0.7v6.2c0,0.4,0.3,0.5,0.6,0.7v0.2C103.9,42.7,102.9,42.7,102.7,42.7
			z"/>
		<path class="st2" d="M82.5,36.2h-0.2c-0.2-0.7-0.5-0.9-1-0.9h-1.7v6.6c0,0.3,0.4,0.6,0.7,0.7v0.2c-0.1,0-1.2,0-1.4,0
			c-0.2,0-1,0-1.2,0v-0.2c0.4-0.1,0.7-0.4,0.7-0.7v-6.6h-1.7c-0.5,0-0.8,0.2-1,0.9h-0.2l0-1.4c0.4,0,0.9,0.1,3.4,0.1
			c2.5,0,3.1,0,3.6-0.1L82.5,36.2z"/>
		<path class="st2" d="M100.5,36.2h-0.2c-0.2-0.7-0.5-0.9-1-0.9h-1.7v6.6c0,0.3,0.4,0.6,0.7,0.7v0.2c-0.1,0-1.2,0-1.4,0
			c-0.2,0-1,0-1.2,0v-0.2c0.4-0.1,0.7-0.4,0.7-0.7v-6.6h-1.7c-0.5,0-0.8,0.2-1,0.9h-0.2l0-1.4c0.4,0,0.9,0.1,3.4,0.1
			c2.5,0,3.1,0,3.5-0.1L100.5,36.2z"/>
		<path class="st2" d="M93.3,42.7c-0.2,0-1.1,0-1.3,0v-0.2c0.3-0.1,0.4-0.3,0.4-0.5c0-0.1-0.1-0.4-0.1-0.5l-0.5-1.3h-3l-0.5,1.1
			c-0.1,0.1-0.2,0.5-0.2,0.6c0,0.3,0.1,0.4,0.4,0.6v0.2c-0.1,0-0.7,0-0.8,0c-0.2,0-0.6,0-0.8,0v-0.2c0.5-0.2,0.6-0.4,0.8-0.8
			l2.5-6.1c0.1-0.3,0.3-0.9,0.3-0.9h0.7c0,0,0.2,0.6,0.3,0.9l2.3,6.1c0.2,0.4,0.3,0.7,0.8,0.8v0.2C94.2,42.7,93.5,42.7,93.3,42.7z
			 M90.3,36.4l-1.4,3.5h2.7L90.3,36.4z"/>
		<path class="st2" d="M118.5,42.7c-0.6-0.1-1-0.1-1.8-0.1h-2.5c-0.2,0-0.9,0-1.1,0v-0.2c0.4-0.1,0.6-0.4,0.6-0.7v-6.2
			c0-0.3-0.2-0.6-0.6-0.7v-0.2h4.8c0.1,0,0.3,0,0.5-0.1h0.2l0,1.3h-0.2c-0.2-0.5-0.5-0.8-1.2-0.8h-2.3v3.1h2.1
			c0.3,0,0.5-0.1,0.7-0.4h0.2c0,0.1,0,0.5,0,0.6c0,0.1,0,0.5,0,0.6h-0.2c-0.2-0.3-0.4-0.4-0.7-0.4h-2.1v3.5h2.3
			c0.8,0,1.2-0.2,1.4-0.7l0.2,0L118.5,42.7z"/>
		<path class="st2" d="M70.3,35.7v7.2h-0.1c0,0-0.7-0.5-1-0.9l-4.7-5.6v5.6c0,0.4,0.2,0.6,0.6,0.7v0.2c-0.1,0-0.7,0-0.9,0
			c-0.2,0-0.7,0-0.8,0v-0.2c0.4-0.1,0.6-0.3,0.6-0.7v-6c0-0.4-0.2-0.7-0.5-0.8v-0.2c0.2,0,0.3,0,0.5,0c0.2,0,0.5,0,0.7,0l5.1,5.8v-5
			c0-0.4-0.2-0.6-0.6-0.7v-0.2c0.1,0,0.7,0,0.9,0c0.2,0,0.7,0,0.8,0V35C70.6,35.1,70.3,35.3,70.3,35.7z"/>
		<path class="st2" d="M111.7,35.7l-2.9,7.2h-0.5l-2.7-7.2c-0.2-0.4-0.3-0.5-0.6-0.6v-0.2c0.2,0,0.9,0,1.1,0c0.2,0,1.1,0,1.3,0V35
			c-0.2,0-0.5,0.2-0.5,0.4c0,0.1,0.1,0.3,0.1,0.4l2,5.3l2.2-5.2c0.1-0.2,0.1-0.5,0.1-0.6c0-0.2-0.1-0.3-0.4-0.4v-0.2
			c0.2,0,0.5,0,0.7,0c0.2,0,0.7,0,0.9,0V35C112,35.1,111.8,35.3,111.7,35.7z"/>
		<path class="st2" d="M61,42.7c-0.2,0-1.1,0-1.2,0v-0.2c0.4-0.1,0.6-0.3,0.6-0.7v-6.2c0-0.4-0.2-0.6-0.6-0.7v-0.2c0.1,0,1,0,1.2,0
			c0.2,0,1.2,0,1.3,0V35c-0.4,0.1-0.7,0.3-0.7,0.7v6.2c0,0.4,0.3,0.5,0.7,0.7v0.2C62.2,42.7,61.1,42.7,61,42.7z"/>
		<path class="st2" d="M73.3,42.7c-0.2,0-1.1,0-1.2,0v-0.2c0.4-0.1,0.6-0.3,0.6-0.7v-6.2c0-0.4-0.2-0.6-0.6-0.7v-0.2
			c0.1,0,1,0,1.2,0c0.2,0,1.2,0,1.3,0V35c-0.4,0.1-0.6,0.3-0.6,0.7v6.2c0,0.4,0.3,0.5,0.6,0.7v0.2C74.5,42.7,73.4,42.7,73.3,42.7z"
			/>
		<path class="st2" d="M84.8,42.7c-0.2,0-1.1,0-1.2,0v-0.2c0.4-0.1,0.6-0.3,0.6-0.7v-6.2c0-0.4-0.2-0.6-0.6-0.7v-0.2
			c0.1,0,1,0,1.2,0c0.2,0,1.2,0,1.3,0V35c-0.4,0.1-0.6,0.3-0.6,0.7v6.2c0,0.4,0.3,0.5,0.6,0.7v0.2C86,42.7,85,42.7,84.8,42.7z"/>
		<path class="st2" d="M102.7,42.7c-0.2,0-1.1,0-1.2,0v-0.2c0.4-0.1,0.6-0.3,0.6-0.7v-6.2c0-0.4-0.2-0.6-0.6-0.7v-0.2
			c0.1,0,1,0,1.2,0c0.2,0,1.2,0,1.3,0V35c-0.4,0.1-0.6,0.3-0.6,0.7v6.2c0,0.4,0.3,0.5,0.6,0.7v0.2C103.9,42.7,102.9,42.7,102.7,42.7
			z"/>
		<path class="st2" d="M82.5,36.2h-0.2c-0.2-0.7-0.5-0.9-1-0.9h-1.7v6.6c0,0.3,0.4,0.6,0.7,0.7v0.2c-0.1,0-1.2,0-1.4,0
			c-0.2,0-1,0-1.2,0v-0.2c0.4-0.1,0.7-0.4,0.7-0.7v-6.6h-1.7c-0.5,0-0.8,0.2-1,0.9h-0.2l0-1.4c0.4,0,0.9,0.1,3.4,0.1
			c2.5,0,3.1,0,3.6-0.1L82.5,36.2z"/>
		<path class="st2" d="M100.5,36.2h-0.2c-0.2-0.7-0.5-0.9-1-0.9h-1.7v6.6c0,0.3,0.4,0.6,0.7,0.7v0.2c-0.1,0-1.2,0-1.4,0
			c-0.2,0-1,0-1.2,0v-0.2c0.4-0.1,0.7-0.4,0.7-0.7v-6.6h-1.7c-0.5,0-0.8,0.2-1,0.9h-0.2l0-1.4c0.4,0,0.9,0.1,3.4,0.1
			c2.5,0,3.1,0,3.5-0.1L100.5,36.2z"/>
		<path class="st2" d="M93.3,42.7c-0.2,0-1.1,0-1.3,0v-0.2c0.3-0.1,0.4-0.3,0.4-0.5c0-0.1-0.1-0.4-0.1-0.5l-0.5-1.3h-3l-0.5,1.1
			c-0.1,0.1-0.2,0.5-0.2,0.6c0,0.3,0.1,0.4,0.4,0.6v0.2c-0.1,0-0.7,0-0.8,0c-0.2,0-0.6,0-0.8,0v-0.2c0.5-0.2,0.6-0.4,0.8-0.8
			l2.5-6.1c0.1-0.3,0.3-0.9,0.3-0.9h0.7c0,0,0.2,0.6,0.3,0.9l2.3,6.1c0.2,0.4,0.3,0.7,0.8,0.8v0.2C94.2,42.7,93.5,42.7,93.3,42.7z
			 M90.3,36.4l-1.4,3.5h2.7L90.3,36.4z"/>
		<path class="st2" d="M118.5,42.7c-0.6-0.1-1-0.1-1.8-0.1h-2.5c-0.2,0-0.9,0-1.1,0v-0.2c0.4-0.1,0.6-0.4,0.6-0.7v-6.2
			c0-0.3-0.2-0.6-0.6-0.7v-0.2h4.8c0.1,0,0.3,0,0.5-0.1h0.2l0,1.3h-0.2c-0.2-0.5-0.5-0.8-1.2-0.8h-2.3v3.1h2.1
			c0.3,0,0.5-0.1,0.7-0.4h0.2c0,0.1,0,0.5,0,0.6c0,0.1,0,0.5,0,0.6h-0.2c-0.2-0.3-0.4-0.4-0.7-0.4h-2.1v3.5h2.3
			c0.8,0,1.2-0.2,1.4-0.7l0.2,0L118.5,42.7z"/>
	</g>
</g>
</svg>
