<svg id="Layer_1" data-name="Layer 1" xmlns="http://www.w3.org/2000/svg" width="105.7" height="36.7" viewBox="0 0 105.7 36.7">
  <title>logo</title>
  <g id="Logo_Cerrado" data-name="Logo Cerrado">
    <g id="Grupo_9" data-name="Grupo 9">
      <g id="Grupo_7" data-name="Grupo 7">
        <path id="Caminho_199" data-name="Caminho 199" d="M48.4,20.4l-1.2,1.5-.7-.4-.8-.2a1.4,1.4,0,0,0-1.2.7,3.8,3.8,0,0,0-.4,2.1,4.5,4.5,0,0,0,.4,2,1.5,1.5,0,0,0,1.2.7l.8-.2.8-.5,1.1,1.4a3.8,3.8,0,0,1-1.3.9,3,3,0,0,1-1.6.3,5.9,5.9,0,0,1-2.3-.5,3.9,3.9,0,0,1-1.5-1.6,10.9,10.9,0,0,1-.3-2.6,7,7,0,0,1,.5-2.5,3.3,3.3,0,0,1,1.5-1.6,4.3,4.3,0,0,1,2.2-.6A5,5,0,0,1,48.4,20.4Z" transform="translate(-0.3 -0.1)" style="fill: #fff"/>
        <path id="Caminho_200" data-name="Caminho 200" d="M56.3,19.7,56,21.5H53.1v1.6h2.6v1.8H53.1v1.8h3.1v1.8H50.5V19.7Z" transform="translate(-0.3 -0.1)" style="fill: #fff"/>
        <path id="Caminho_201" data-name="Caminho 201" d="M61.7,25.3h-.5v3.1H58.6V19.6h3.2a4.5,4.5,0,0,1,2.8.7,2.4,2.4,0,0,1,.9,2.1,2.3,2.3,0,0,1-.4,1.4,2.9,2.9,0,0,1-1.2,1l2.2,3.6H63.2Zm-.5-1.7h.7A1,1,0,0,0,63,22.5c0-.7-.4-1-1.2-1h-.6Z" transform="translate(-0.3 -0.1)" style="fill: #fff"/>
        <path id="Caminho_202" data-name="Caminho 202" d="M71,25.3h-.5v3.1H67.9V19.6h3.2a5,5,0,0,1,2.9.7,2.4,2.4,0,0,1,.9,2.1,2.3,2.3,0,0,1-.4,1.4,2.9,2.9,0,0,1-1.2,1l2.2,3.6H72.6Zm-.4-1.7h.7a1,1,0,0,0,1.1-1.1c0-.7-.4-1-1.2-1h-.6Z" transform="translate(-0.3 -0.1)" style="fill: #fff"/>
        <path id="Caminho_203" data-name="Caminho 203" d="M81.9,28.5l-.3-1.7H79.5l-.3,1.7H76.4L79,19.7h3.1l2.6,8.8Zm-2-3.6h1.4l-.7-3.5Z" transform="translate(-0.3 -0.1)" style="fill: #fff"/>
        <path id="Caminho_204" data-name="Caminho 204" d="M92.6,20.6c.9.6,1.3,1.8,1.3,3.4a4.2,4.2,0,0,1-1.2,3.4,5,5,0,0,1-3.3,1h-3V19.6h2.8A5.9,5.9,0,0,1,92.6,20.6Zm-3.6.9v5.1h.5l1-.2a1,1,0,0,0,.5-.8,7.8,7.8,0,0,0,.2-1.6,3.9,3.9,0,0,0-.2-1.5,1.6,1.6,0,0,0-.6-.8,1.5,1.5,0,0,0-.9-.2Z" transform="translate(-0.3 -0.1)" style="fill: #fff"/>
        <path id="Caminho_205" data-name="Caminho 205" d="M103,20.6a5.3,5.3,0,0,1,1.1,3.4,5.3,5.3,0,0,1-.5,2.5,3.6,3.6,0,0,1-1.4,1.6,4.3,4.3,0,0,1-2.2.6,3.7,3.7,0,0,1-3-1.2,5.3,5.3,0,0,1-1.1-3.4,5.3,5.3,0,0,1,.5-2.5A3.6,3.6,0,0,1,97.8,20a4.3,4.3,0,0,1,2.2-.6A3.9,3.9,0,0,1,103,20.6Zm-4.1,1.3a4.1,4.1,0,0,0-.3,2.2,8.3,8.3,0,0,0,.3,2.2,1.2,1.2,0,0,0,1.1.7,1.1,1.1,0,0,0,1.1-.6,4.1,4.1,0,0,0,.3-2.2,8.3,8.3,0,0,0-.3-2.2,1,1,0,0,0-1.1-.6A.9.9,0,0,0,98.9,21.9Z" transform="translate(-0.3 -0.1)" style="fill: #fff"/>
      </g>
      <g id="Grupo_8" data-name="Grupo 8">
        <path id="Caminho_206" data-name="Caminho 206" d="M41.4,6.8v8.7H40.2V6.8Z" transform="translate(-0.3 -0.1)" style="fill: #fff"/>
        <path id="Caminho_207" data-name="Caminho 207" d="M51.1,15.5H49.5L45.9,8.1A9.2,9.2,0,0,1,46,9.7v5.8H44.9V6.8h1.6l3.6,7.4c0-.2-.1-.6-.1-1.2s-.1-1.1-.1-1.5V6.7H51Z" transform="translate(-0.3 -0.1)" style="fill: #fff"/>
        <path id="Caminho_208" data-name="Caminho 208" d="M55.8,6.8v8.7H54.6V6.8Z" transform="translate(-0.3 -0.1)" style="fill: #fff"/>
        <path id="Caminho_209" data-name="Caminho 209" d="M63.7,6.8a4.1,4.1,0,0,1,1.1.7l-.6.7a2.7,2.7,0,0,0-1.7-.6,2.5,2.5,0,0,0-1.8.8,5,5,0,0,0-.7,2.7,4.4,4.4,0,0,0,.7,2.7,2.1,2.1,0,0,0,1.7.9l1-.2.9-.5.6.8-1,.7-1.5.3a4.1,4.1,0,0,1-1.9-.5,3.7,3.7,0,0,1-1.3-1.5,7,7,0,0,1-.5-2.5,5.6,5.6,0,0,1,.5-2.5,3.2,3.2,0,0,1,1.3-1.5,3.7,3.7,0,0,1,1.8-.5A2.2,2.2,0,0,1,63.7,6.8Z" transform="translate(-0.3 -0.1)" style="fill: #fff"/>
        <path id="Caminho_210" data-name="Caminho 210" d="M68.7,6.8v8.7H67.5V6.8Z" transform="translate(-0.3 -0.1)" style="fill: #fff"/>
        <path id="Caminho_211" data-name="Caminho 211" d="M76.9,15.5l-.7-2.2H72.9l-.7,2.2H71l2.8-8.7h1.5l2.8,8.7Zm-3.7-3.2h2.7L74.5,7.7Z" transform="translate(-0.3 -0.1)" style="fill: #fff"/>
        <path id="Caminho_212" data-name="Caminho 212" d="M85,6.8v1H82.5v7.7H81.3V7.8H78.8v-1Z" transform="translate(-0.3 -0.1)" style="fill: #fff"/>
        <path id="Caminho_213" data-name="Caminho 213" d="M88.6,6.8v8.7H87.4V6.8Z" transform="translate(-0.3 -0.1)" style="fill: #fff"/>
        <path id="Caminho_214" data-name="Caminho 214" d="M97.9,6.8l-2.8,8.7H93.8L91,6.8h1.3l2.2,7.4,2.2-7.4Z" transform="translate(-0.3 -0.1)" style="fill: #fff"/>
        <path id="Caminho_215" data-name="Caminho 215" d="M104.7,15.5l-.7-2.2h-3.3l-.7,2.2H98.8l2.8-8.7h1.6l2.8,8.7ZM101,12.3h2.7l-1.4-4.6Z" transform="translate(-0.3 -0.1)" style="fill: #fff"/>
      </g>
    </g>
    <g id="Grupo_16" data-name="Grupo 16">
      <g id="Grupo_14" data-name="Grupo 14">
        <g id="Grupo_10" data-name="Grupo 10">
          <path id="Caminho_216" data-name="Caminho 216" d="M6.4,32.3a.6.6,0,0,1-.6-.3,18.5,18.5,0,0,1,0-26.4,18.6,18.6,0,0,1,26.4,0,.9.9,0,0,1,0,1.3h0a.9.9,0,0,1-1.3,0A16.9,16.9,0,0,0,7,30.8a.9.9,0,0,1,0,1.3H7Z" transform="translate(-0.3 -0.1)" style="fill: #fff"/>
        </g>
        <g id="Grupo_11" data-name="Grupo 11">
          <path id="Caminho_217" data-name="Caminho 217" d="M18.9,33.7A15,15,0,0,1,8.3,8.2a.4.4,0,0,1,.6,0h0a.4.4,0,0,1,0,.6h0A14.1,14.1,0,0,0,28.8,28.7a.4.4,0,0,1,.6,0h0a.4.4,0,0,1,0,.6A14.6,14.6,0,0,1,18.9,33.7Z" transform="translate(-0.3 -0.1)" style="fill: #fff"/>
        </g>
        <g id="Grupo_12" data-name="Grupo 12">
          <path id="Caminho_218" data-name="Caminho 218" d="M11.1,26.9h-.3a10.6,10.6,0,0,1-3.3-8.1,11.8,11.8,0,0,1,3.3-8.1,11.4,11.4,0,0,1,16.2,0,.4.4,0,0,1,0,.6h0a.4.4,0,0,1-.6,0h0a10.6,10.6,0,0,0-15,15,.4.4,0,0,1,0,.6h-.3Z" transform="translate(-0.3 -0.1)" style="fill: #fff"/>
        </g>
        <g id="Grupo_13" data-name="Grupo 13">
          <path id="Caminho_219" data-name="Caminho 219" d="M19,27.2a8.5,8.5,0,0,1-6-14.5A.9.9,0,0,1,14.3,14a6.6,6.6,0,0,0,9.4,9.4A.9.9,0,1,1,25,24.7h0A8.7,8.7,0,0,1,19,27.2Z" transform="translate(-0.3 -0.1)" style="fill: #fff"/>
        </g>
      </g>
      <g id="Grupo_15" data-name="Grupo 15">
        <circle id="Elipse_6" data-name="Elipse 6" cx="18.8" cy="18.8" r="17.9" style="fill: none"/>
      </g>
    </g>
  </g>
</svg>
