<?xml version="1.0" encoding="utf-8"?>
<!-- Generator: Adobe Illustrator 23.0.4, SVG Export Plug-In . SVG Version: 6.00 Build 0)  -->
<svg version="1.1" id="Camada_1" xmlns="http://www.w3.org/2000/svg" xmlns:xlink="http://www.w3.org/1999/xlink" x="0px" y="0px"
	 viewBox="0 0 452 448" style="enable-background:new 0 0 452 448;" xml:space="preserve" width="630">
<style type="text/css">
	.st0{fill-rule:evenodd;clip-rule:evenodd;fill:none;stroke:#FFFFFF;stroke-linejoin:round;stroke-miterlimit:10;}
	.st1{fill-rule:evenodd;clip-rule:evenodd;fill:#FFFFFF;}
</style>
<path class="st0" d="M431.9,148.3c0.3,4.8-0.5,9.7-2.1,14.3c-2.7,7.5-8,12.5-13.1,18.5c-0.6,0.7-1.3,1.5-2,2.1
	c-0.7,0.6-1.6,1-2.3,1.6c-9,6-9.6,20.8-19.6,25.2c-0.2-3.2-0.4-1.8-2.1-4.5c-0.2,0.8-0.4,1.6-0.7,2.4c-0.8,0-1.3-1.1-0.8-1.7
	c-0.5,0.3-0.8,0.9-0.8,1.5c0.8,0.3,1.6,0.6,2.3,0.9c-2.2,2.1-3.4,5.2-3.2,8.2c0,0.7,0.1,1.5-0.6,1.8s-0.8-1.2-0.2-0.8
	c0.2,1.1,0.5,2.1,0.7,3.2c0.3-0.6,0.7-1.3,1-1.9c-1.2,4.5-1.5,9.3-0.8,13.9c0.3,2.2,0.9,4.4,0.9,6.6c0,5.9-4,11.3-3.2,17.1
	c0.2,1.2,0.5,2.5-0.1,3.6c-0.6,1-1.8,1.5-2.7,2.2c-4.5,3.5-0.5,11.3-3.3,16.3c-0.6,1.1-1.6,2.1-2.4,3.1c-1.4,2-2.1,4.4-3.4,6.5
	c-1.5,2.5-3.9,4.5-5.5,6.9c-2.7,4,1.1,8.9-4.6,11.1c-2.1,0.9-4.6,1.2-6.2,2.9c-0.9,1-0.9,3.2,0.5,3.2c-0.9,0.2-1.6,1-1.7,2
	c-3.9,0-7.8,0.1-11.6,0.1c0.4-1,0.7-1.9,1.1-2.9c-1-0.1-2.1,0.3-2.7,1.2c0.4,0.6,0.9,1.2,1.3,1.8c-1.9,0.3-3.7,0.7-5.6,1
	c0.8-1.3-1.7-1.9-3-1.3c-1.3,0.7-3.5,1.2-3.7-0.2c-1.7,0.5-3.2,1.4-4.4,2.6c0.8,0.4,1.7,0.9,2.5,1.3c-3.3,0.6-6.5,1.9-9.4,3.7
	c-0.1,0.7-0.1,1.5-0.2,2.2c-2.6-2.1-6.4-0.5-9.3,1.2c-4.5,2.6-9.1,5.3-13.6,7.9c-2.2,0.9-3.9,2.8-4.6,5c-0.1,0.2-1.7,1.3-1.9,1.3
	c-0.8,0.1-1.4-0.2-1.8-1c-0.2,0.8-0.4,1.6-0.6,2.5c-0.9-0.3-1.9-0.5-2.8-0.8c0.5,1.2,2,1.9,3.3,1.5c-0.5,1.6-1.9,3-3.6,3.5
	c0.6,0,1.3,0,1.9,0.1c-0.5,0.7-0.2,1.6-0.3,2.4c-0.1,0.8-1.1,1.7-1.6,1.1c-0.2,0.5-0.1,1.1,0.2,1.4c0.7-0.6,1.4-1.3,2.1-1.9
	c0.3,1.3-0.7,2.6-1.2,3.9c-0.5,1.4-0.2,3,0.1,4.5c0.2,1,0.6,2.2,1.6,2.3c-0.5-0.1-1.1,0.2-1.2,0.7s0.2,1.1,0.7,1.2
	c-1,0.3-1.3,1.8-0.6,2.5c-0.3,0-0.5,0.5-0.5,0.8c0,3.2,0.2,5.8-1.7,8.6c0-0.7-0.3-1.4-0.7-1.9c-0.4,0.8,0.2,2,1.1,2.2
	c-0.3,0.3-0.5,0.7-0.8,1c-0.2-0.3-0.7-0.4-1.1-0.2c-0.2-0.3,0.5-0.4,0.5,0c0,0.3-0.3,0.5-0.6,0.7c-7.9,4.1-10.8,11.4-14.6,18.9
	c-2.6,5-6.5,9.3-11.1,12.5c-2.6,1.8-5.4,3.2-7.5,5.6c0.3-1.3,0.7-2.1,0.2-3.4c2.4,0.1,4.8-0.7,6.2-2.6c0.1-0.3,0.2-0.5,0.3-0.8
	c1,0.4,2.2-0.3,2.7-1.4c0.4-1,0.3-2.2,0.1-3.3c1.1,0.5,2.5-0.6,2.3-1.8c0.1,0.5,1.4-1.6,1.5-1.8c0.7-1.4,1.3-2.8,2-4.2
	c0.2,0.2,0.3,0.4,0.3,0.7c-0.3,0-0.4,0.3-0.4,0.6s0.4,0.3,0.6,0.2c0.2-0.1,0.2-0.4,0.3-0.6c0.1-0.6,0.2-1.1,0.3-1.7
	c0-0.2,0-0.4-0.1-0.5c-0.1-0.1-0.4,0-0.3,0.1c-0.2-0.1-0.3-0.2-0.4-0.4c-0.5,0.2-0.8,0.3-0.5,0.9c-0.6,0.1-1.4,0.2-2,0.5
	c-0.1,0-1.4,1.2-0.8,1.1c-0.8,0.2-1.6-0.8-1.2-1.5c-1.4,0-2.7-1.4-2.5-2.8c-1.1,1.3,0.1,3.7,1.8,3.7c-1.8,0.8-2.7,3.1-1.9,4.8
	c-0.1-0.8-0.4-1.5-0.9-2.1c-0.4,0.8-0.4,1.9,0.1,2.8c-1.1-0.3-2,1.6-1,2.2c-1.1-0.2-2.3,0.8-2.1,1.9c-1.9-0.6-4,1.4-3.6,3.3
	c-0.1-0.5-1-0.4-1,0.1c0.4,0,0.6,0.6,0.4,0.8c-1,0.1-1.8,0.9-2,1.9c0.4,0.2,0.8,0.5,1.2,0.7c-0.8,0.1-1.4,0.8-1.3,1.6
	c0.6-0.2,1.2-0.3,1.8-0.5c-0.2,0.4-0.3,0.9-0.2,1.4c-2.6,1.4-3.2,4.8-4.4,7.5c-0.8,1.7-9.4,11.5-10.5,8.2c-0.2-0.4,0-0.9,0.1-1.3
	c0.4,0.2,0.8-0.3,0.8-0.7c0-1-0.6-2-0.1-2.9c0.3-0.6,1.1-0.8,1.4-1.4c-0.1,0.4,0.5,0.6,0.8,0.4c0.3-0.2,0.5-0.6,0.6-1
	c0.2-0.7,0.3-1.6,0.8-2.1c0.7,0.4,1-0.1,1.5-0.6c-0.5,0.7,0.4,1.8,1.3,1.7c0.9-0.1,1.6-0.9,2-1.7c0.8-1.5,0.9-3.7-0.5-4.7
	c0.3-0.5,0.6-1,0.8-1.5c-0.5,0-1,0.3-1.2,0.8c-0.7,0.1-0.9,1.2-0.4,1.6c-0.9,0.4-1.6,0.7-2.2,1.4c-0.4,0.4,0.1,0.8-0.7,1l-0.3,0.1
	l-0.3-0.1v0.1l0.1,0.1c0,0-0.5,0-0.5,0c-1.3,0.4-4.3-1.7-5-2.9c-0.7-1.3-1.1-2.7-2.2-3.6c-1.5-1.3-3.9-1.1-5.4-2.5
	c-0.9-0.8-1.4-2.1-2.4-2.8c-0.8-0.6-1.7-0.7-2.7-1c-3.3-0.9-6.2-3.2-7.9-6.2c-1,1.6-2.8,2.6-4.6,2.7c0.7-2.2-1.3-4.3-3-5.7
	c-1-0.9-2.1-1.7-3.1-2.6c-1-0.9-2.1-1.7-3.4-2c-1.3-0.2-2.9,0.5-3,1.8c-1.4,0.5-3.1,0.2-4.2-0.9c2.2-1.5,3.9-3.6,5.7-5.5
	c4.2-4.5,8.4-9,12.6-13.5c0.4-0.5,1.4-0.2,1.4,0.4c0.4-0.6,0.1-1.6-0.6-1.8c2.4-1.8,4.9-3.3,7.6-4.6c0.9-0.9,1.8-1.8,2.7-2.8
	c2.4-0.3,4.8-1.3,6.7-2.8c1.5-1.2,4.1-1.4,4.8-3.7c0.7-2.6,0.1-6.9-0.8-9.5c-0.4-1-0.7-2-1.1-3.1c-0.2-0.6-0.4-1.2-0.9-1.6
	s-1.3-0.4-1.6,0.1c0-0.4,0-0.8,0.1-1.2c-1.2,0.6-2.4,1.1-3.6,1.7c-0.5-0.4-1.1-0.7-1.7-0.8c0.7-2.2,1.4-4.5,2-6.7
	c0.4-1.3,0.8-2.6,1-4c0.3-1.8,0.3-3.6-0.1-5.3c-0.2-2.1-3.2-2.6-5.2-1.9c-2,0.6-4.1,1.8-6.1,1c-0.8-4.4-1.7-8.8-2.5-13.3
	c-0.2-1.3-1-2.5-1.6-3.6c0,0-0.1-0.3-0.1-0.3v-0.1l-0.1-0.1l-0.1-0.1h-1.9l-0.3-0.1h-0.5l-0.4-0.1l-0.1,0.1h-0.7l-0.4-0.3v-0.1h-0.3
	l-0.3-0.1l-0.5-0.3v-0.1l-0.1-0.1l-0.1-0.1V306l-0.1-0.1v-0.1l-0.1-0.1v-0.1l-0.1-0.1h-0.1l-0.1,0.1h-0.7l-0.1,0.1v0.1l-0.1,0.1
	l-0.1,0.3l-0.1,0.1l-0.3,0.3l-0.1,0.3h-0.1l-0.1,0.1l-0.1,0.1l-0.1,0.1h-0.3v-0.1l-0.1-0.1h-0.1l-0.3,0.3l-0.1,0.1l-0.1-0.1h-0.7
	l-0.1,0.4h-0.1l-0.1,0.1h-0.3l-0.1-0.1v-0.4h-0.1l-0.1,0.1l-0.1-0.1h-0.3l-0.1-0.1h-0.3l-0.3-0.1l-0.3,0.1h-0.1v-0.1h-0.1l-0.1,0.1
	l-0.3,0.1h-0.1v-0.3h-0.7l-0.3,0.1v-0.3l-0.1,0.1l-0.4,0.3l-0.3-0.3h-0.1l-0.3,0.1h-0.1l-0.1-0.1h-0.4l-0.1-0.1h-0.1l-0.3-0.4h-0.4
	l-0.1-0.1h-0.9l-0.1-0.3v-0.3l-0.1,0h-0.1l-0.1-0.1l-0.1,0v-0.1l0-0.1h-0.9l-0.1,0.1H191l-0.1,0.3l-0.3-0.1c0,0-0.1,0.1-0.1,0.1
	c-2.5,2.3-2.1-6-1.4-7.3c1.1-2.2,0.7-5.5-0.1-7.7c-0.3,0-0.5-0.1-0.8-0.1c0.2-1.2-0.1-2.4-0.8-3.4c-0.2-0.3-0.5-0.7-0.6-1.1
	c-0.5-1.5,1.3-2.6,2.8-3.1c-0.3,0.1-2.4-2.1-2.8-2.4c1.2-2.4,2.3-4.9,3.5-7.4l0.8-0.1h0.1v-0.3l-0.1-0.1l-0.1-0.1v-0.8
	c0,0-0.5-0.1-0.5-0.1c0.4-1.1,1.6-7,2.9-6.9c-1.3-1.8-2.3-3.9-2.8-6.2c-0.5-2.3-3.1-2.2-4.7-3.3c-1.6-1.1-2.8-3-2.9-4.9
	c-0.2-2.2,1.8-4,1.4-6.1c-1.3,0.1-2.9,0.1-4.4,0.1l-7.2-0.5l-7.6-0.3l-0.5-8.5l-3.5-3.9c0,0,3.3,0,3.3,0c-0.3-3.4-2.7-7-2.2-10.3
	c0.1-0.7,0.3-1.4,0.1-2.1c-0.3-0.8-1.1-1.3-1.9-1.7c-4-1.9-8.6-2.5-13-1.8c-1.2-1.1-2.2-2.5-3-4c-4.2-0.3-8.3-2.5-10.9-5.8
	c-0.9,1.4-2.8-0.6-4.3-1.4c-1.9-1-4.3,0.4-6.4,0c-3.5-0.5-5.4-5.3-8.9-5.2c0.6-1.2-0.4-2.9-1.8-2.9c-0.6-1.7-0.9-3.5-1.1-5.4
	c-0.3-3,0.2-6.1,0.2-9.1c0-1.1-1.7-9.8-2.8-5c-2.8-1.2-6.1-1.2-8.9-0.1c-1.4,0.5-2.7,1.4-3.9,2.1c-3.4,2.1-6.8,4.3-10.2,6.4
	c-3.6-1.4-6.2,6.2-9.8,4.8c-0.3-0.3-0.6-0.7-0.9-1c-4.2-0.7-8.5-1.4-12.6-0.3c-2.5,0.7-4.5,0.1-6.8,0.2c0.1-4.1,0-8.3,0-12.4
	l0.1-0.3h0.3l0.1-0.3L56,176l0.3-0.3l0.1-0.4l-0.3-0.4l-0.1-0.1l-0.4-0.7l0.1-0.1c0,0,0.1-0.3,0.1-0.3c0.2-0.3,0.5-0.6,0.6-0.9
	c-1.9-0.1-4,2.2-5.6,3.5c-3.3,2.5-8.1,2.3-11.9,1.9c0.3-1.2-0.4-3.9-1.5-4.8c-0.3-0.3-0.7-0.4-1.2-0.5c-2.6-0.6-5.3-0.9-8-0.7
	c0.6-0.7,1.3-1.4,1.9-2.1c0.3-0.3,0.5-0.6,0.7-1c0.3-0.9-0.2-1.9-0.9-2.6c-0.5-0.5-1-1-1.6-1.5c-2.6-1.9-4.6-6-5.8-8.8
	c0.7-0.9-0.4-2-1.4-2.6s-1.7-2.2-0.7-2.6c0.7-0.3,1.4-0.6,2.1-0.9c-1.1-2.7,0.5-6.1,3.2-7.1c1.4-0.5,3.3-0.9,3.3-2.3
	c0-0.9-0.9-1.5-1.2-2.4c-0.6-1.8,1.5-3.2,2.3-4.9c0.5-1,0.6-2.2,0.9-3.3c0.7-2.4,2.7-4.2,4.8-5.5c3.1-2,6.7-3.1,10.3-4.2
	c2.8-0.9,5.5-1.8,8.3-2.7c1.9-0.6,5.4-0.2,6.8,1.1l0.4,0.3l0.5,0.1l0.1-0.4l0.1-0.3l1.3-6.5l2.1-12.8c0,0,0.9-4.8,0.9-4.8
	c0.7-3.9,2.5-8.5,0.1-12c-0.3-0.4-0.6-0.8-0.7-1.3c-0.1-0.5,0-0.9-0.1-1.4c-0.2-1.4-1.8-2.1-3-2.8c-2.1-1.3-2.2-7.6-1.5-9.6
	c2.4,0,4.9-1.9,7.3-0.8c0.4,0.2,0.9,0.4,1.3,0.3c0.4-0.1,0.7-0.5,1-0.3c-0.7-0.5-0.3-1.5-0.4-2.4c-0.1-1.1-1.1-2-2.2-2.2
	c-0.9-0.2-4.6,0.3-4.9-0.1c0-1.4-0.7-5.5,0.2-6.5c2-2.2,14.2-0.1,17.3-0.2c-0.4-0.4-0.7-0.8-1.1-1.3c0.4-0.6,0.7-1.3,0.8-2
	c0.6,0.9,1.5,1.6,2.4,2c1.7-1.2,3.4-2.4,5.1-3.6c0.2-0.1,0.4-0.3,0.7-0.3c0.7,0,1,0.8,1,1.5c0,0.7-0.1,1.5,0.4,1.9
	c0.4,0.3,1,0.3,1.4,0.6c0.5,0.4,0.6,1,0.7,1.7c0.2,1.7,0,3.5,0.3,5.1c0.6,0,1.3-0.1,1.9-0.3c0,0,0.4,0.1,0.4,0.1
	c3.2,1.1,4.3,6.4,8.7,4.1c1.2-0.6,2.2-1.9,3.6-1.7c1.4,0.2,2.2,2.3,1.1,3.3c2.4-2.5,9.3-9.6,13.2-7.4c1.2-2.6,2.4-5.5,5.2-6.7
	c1.1-0.5,2.3-0.6,3.3-1.3c1-0.6,1.6-2.1,0.8-3c-2.3,0.6-4.8,0.3-6.9-0.8c2-3.5-4-8.5-1.1-11.3c-2.8-1.8-5.3-4.2-7-7.1
	c1.6,0.3,3.1,0.6,4.7,0.9c1.7,0.3,3.9,1.3,3.6,3c1.5-1.2,3.7-1.3,5.4-0.4c2.3-0.7,5,0.9,5.5,3.2c0.7-0.7,1.7-1,2.7-1
	c-0.1-1.2-0.1-2.3-0.2-3.5c2.3-0.9,4.8-1,7.3-1.4c5.9-1,11.5-4,15.7-8.3c-0.5-0.8-1-1.7-1.4-2.5c2.1-1.1,4.9-1.1,6.6,0.5
	c1.7,1.6,1.4,5.1-0.8,5.9c1.7,0.6,3.4,1.3,5.1,1.9c-0.5,1.7,0.3,3.7,1.8,4.7c-0.7,1.5-1.9,2.8-3.2,3.7c0.1,2.5-1,4.9-1.4,7.3
	c-0.4,2.5,0.2,5.5,2.5,6.5c-0.7,2.7,0.7,5.6,2.8,7.5c3.3,3,6.6,1.4,9.9,3.2c0.4-0.5,0.4-1.3,0-1.8c0.8-0.1,1.6-0.8,1.8-1.6
	c1.2,0.7,2.5,0.9,3.9,0.7c0.1-0.4,0.2-0.7,0.2-1.1c1.5-1.2,4.4,0.1,5.3-1.6c0.2-0.4,0.3-1,0.6-1.3c0.8-0.9,2.7-0.1,3.2-1.2
	c0.5,1.2,2,1.7,3.4,1.5c1.3-0.2,2.6-0.7,3.9-0.5c1.8,0.2,3.1,1,4.9,0.8c1.5-0.2-1.1-3.5-1.3-3.7c-0.3-0.3-0.5-0.6-0.5-0.9
	c0-0.3,0.2-0.5,0.4-0.7c0.5-0.6,1-1.2,1.5-1.7c0.9,1.2,2.6,1.2,4.1,1c2.2-0.3,4.4-1,6.3-2c-0.4,1.3,1.5,2.4,2.5,1.5
	c0,0.5,0,0.9,0,1.4c2,0.8,4,1.6,5.9,2.5c1.3-0.9,2.5-1.9,3.8-2.8c1,1.4,3.3,1.5,4.5,0.3c0.7,0.3,1.3,1.5,0.5,1.7
	c4.7,2.9,7.7-4.7,9.1-7.5c2.5-4.9,5.5-9.6,9.1-13.8c0.4,0.8,0.7,1.5,1.1,2.3c-0.9-1.3-1.2-3-0.6-4.5c2.9,1.3,4.4,5,3.3,7.9
	c0.4-0.8,0.8-1.7,1.2-2.5c0,7.1,2,14.3,5.7,20.4c0.4,0.7,0.9,1.4,1.6,1.6c0.7,0.2,1.4,0,2.2,0c2.8,0,4.3,4.3,2.2,6.1
	c0.2-0.3,0.8,0,0.8,0.4c0,0.4-0.3,0.7-0.6,1c-6.3,6.4-15.4,12.8-18.5,21.6c1.5-3.6,3.9-6.7,7-9.1c0.2,2,0.4,3.9,0.6,5.9
	c0.6-0.1,1.2-0.2,1.8-0.4c-1.2,0.9-1.8,2.4-1.6,3.8c0.5-0.2,1-0.4,1.5-0.7c-0.2,3.3,0.2,8.9,3.8,10.3c1.6,0.6,3.3,0.5,5,0.3
	c3.1-0.4,7.1-0.9,9.3-3.4c-1.9,0.5-3.8,1-5.7,1.5c0,0-0.8-0.9-0.8-0.9l-0.8,1.3l-2.4-0.7l-5.5,0.9l-2-5.1l-0.1-1.7l2.3-0.5l-2.4-1.3
	l0.1-3.5l2.3,0.4l-0.7-0.9l-1.1-0.4v-0.4l0.1-0.5l0.1-0.4c0,0,0.3-0.7,0.3-0.7c2.2-5.4,8.9-0.3,13-1.5c0.6-0.2,1.3-0.5,1.9-0.6
	c0.7-0.1,1.4,0,2.2,0.1c2,0.3,3.9,0.6,5.9,0.9c0.6,0.1,1.3,0.3,1.4,0.9c0,0.3-0.2,0.6-0.3,0.9c-1.1,1.9-1,4.4-2.2,6.2
	c-0.3,0.5-0.8,0.9-1.1,1.4c-0.4,0.6-0.6,1.3-1,1.9c-1.1,2-3.1,3.3-5.1,4.5c0.3,0.4,0.7,0.9,1,1.3c1.1,1.5,4.5-3.3,5.1-4.1l0.1-0.4
	l0.4-0.7c0,0,0.1-0.1,0.1-0.1c-0.1,0.1,0.7,0.4,1.1,0.1c0.1,0.5,0.5,1,0.6,1.6c0.3-1.4,0.5-2.9,0.7-4.3c0.2-0.6,1-0.7,1.4-0.2
	c-0.1-2,1.5-3.9,3.5-4.2c0.9-0.5,1.8-1,2.7-1.5c0.2,0.8,1.4,1.2,2.1,0.7c-0.1,0.6,0.5,1.3,1.1,1.3c-0.3-0.4-0.5-1-0.4-1.5
	c1,0.1,1.9,0.2,2.9,0.3c0.1,0.5,0.2,0.9,0.2,1.4c0.2-0.3,0.4-0.6,0.6-0.9c0.4,1,0.6,1.1,1.4,0.3c0.1,0.6,0,1.2-0.2,1.8
	c0.7-0.5,1.3-1,1.9-1.7c-0.1,0.4-0.3,0.8-0.4,1.2c0.5,0,1,0.3,1.2,0.8c0.1-0.4,0.4-0.8,0.8-1c0.1,0-0.2,1.3-0.5,1.5
	c0.9-0.1,1.8,0.6,2.8,0.6c0.9,0.1,1.8-0.2,2.4-0.9c-0.2,0.9-0.4,1.9-0.7,2.8c0.7-0.6,1.5-1,2.4-1.2c0.1,0,0.3-0.1,0.4,0
	c0.1,0.1,0.1,0.2,0.1,0.3c0.1,0.4,0.1,0.7,0.1,1.1c0.4-0.5,0.7-1.1,1.1-1.6c-0.1,0.6-0.1,1.3-0.2,1.9c0.5-0.3,1.1-0.6,1.6-1
	c0.1,0.9,0.2,1.7,0.3,2.6c0.1-0.5,0.4-1,0.9-1.1c0.5-0.1,0.8,0.5,0.9,0.8c0.3-0.3,0.6-0.5,0.8-0.8c-0.2,0.6-0.4,1.3-0.6,1.9
	c0.7-0.4,1.3-1,1.7-1.6c-0.1,1.3-0.1,2.7-0.2,4c0.3-0.8,0.9-1.8,1.7-2.2c0.9-0.5,2.2-0.1,2.3,0.9c0.1-0.8,0.7-1.6,1.5-1.9
	c-0.3,0.7-0.6,1.4-1,2c0.9-0.1,1.7-0.2,2.6-0.3c0.1,0.6-0.5,1.2-1.1,1c0.4,0.3,0.3,1.1-0.2,1.3c0.6,0,1.2-0.2,1.6-0.6
	c0.4,0.9,1,1.7,1.6,2.5c-0.6,1.1-1.3,2.2-1.9,3.3c0.6-0.4,1.3-0.8,1.9-1.2c1.3,0.1,1.4,2.5,0.1,2.7c-0.5,0-1.6,3.6-1.7,4.1
	c-0.1,0.7-0.2,1.5,0.2,2.2c0.6,1.1,0.8,0.6,1.5-0.1c0.2-0.2,0.4-0.5,0.5-0.7c0.5-1,0.5-2.5,0.7-3.6c0-0.2,0.1-0.3,0.2-0.5
	c0.1-0.1,0.3-0.2,0.4-0.1c0.1-0.1,0.1-0.2,0-0.3c0.6-0.3,1.2-0.6,1.8-0.9c0.2-0.1,0.4-0.2,0.5-0.2c0.2,0,0.4,0.1,0.4,0.3
	c0,0.2-0.2,0.4-0.4,0.2c0.5,0.5,0.5,0.9,0,1.3c-0.3,0.3-0.5,0.6-0.8,1c-0.3,0.3-1.3,1-1.7,1c0.4-0.1,0.9,0,1.3,0
	c0,0.3-0.1,0.6-0.1,0.9c0.9-1,2-2,3-2.9c0.1,0.1,0.2,0.3,0.3,0.4c0.6-0.5,1.2-1,1.8-1.4c-0.1,0.2,0,0.4,0.1,0.6
	c0.1-0.3,0.7-0.4,0.8,0c0-0.1,0.9-0.8,0.8-1.3c-0.1-0.3-0.3-0.5-0.6-0.6c0.1-0.3,0.5-0.6,0.8-0.5c0,0.2-0.1,0.4-0.1,0.6
	c0.5,0.1,0.2,1.1,0.7,1.3c0.5-0.5,0-1.4,0.4-1.9c0.7-0.9,4.4,0.9,5.1,1.3c0.5,0.3,1.1,0.7,1.7,0.8c0.3,0,0.6,0,0.8,0.1
	c0.3,0.1,0.5,0.3,0.8,0.5c0.9,0.8,1.9,1.4,2.9,1.9c-0.3-0.3-0.5-0.6-0.8-0.9c1.1,0.3,2.2,0.7,3.3,1.2c-0.2-0.4-0.6-0.8-1-0.9
	c0-0.2,0-0.5,0.1-0.7c0.6,0.3,1.1,0.9,1.4,1.5c0.2,0,0.3,0,0.5,0c-0.4-0.5-0.9-1-1.4-1.4c0.4,0.1,0.8,0.2,1.2,0.1
	c0.1,0.2,0.2,0.4,0.3,0.6c-0.1-0.1,1.8-0.1,1.9,0c0.7,0.1,1,0.6,1.5,1c1.1,0.8,3.3,0.5,4.1,1.8c-0.2-0.1-0.2-0.4,0-0.6
	c0.2-0.1,0.4-0.2,0.7-0.2c1.9-0.1,3.8-0.3,5.7-0.5c1.8-0.2,3.3,0,5.1,0c5,0.9,9.7,3.4,13.7,6.5c1.9,1.4,3.7,3,5.6,4.5
	c4.4,3.8,8.9,7.5,13.3,11.3c4.7,0.5,9.4,1,14.1,1.4c1.1,0.1,2.2,0.2,3.1,0.9c1,0.7,1.5,1.9,2,3.1c2.1,5.3,3.5,10.9,4.3,16.6
	c-0.4,0.3-0.5-0.8,0-0.7c0.5,0.1,0.7,0.7,0.7,1.3C431.9,148.1,431.9,148.2,431.9,148.3z"/>
<polygon class="st1" points="361.2,103.2 361.2,103.8 361.1,104.2 360.7,104.3 360.4,104.2 360,103.8 359.9,103.5 359.5,103.4 
	359.1,103.4 359,103.2 358.8,103.2 358.4,103.9 358.4,104 358.3,104.3 358,104.2 357.8,103.6 357.4,103.5 357.2,102.8 356.7,102.4 
	356.4,102.6 356.3,102.8 356.3,103.2 356.2,103.4 356.3,103.6 356.3,104 356.6,104.3 356.7,104.6 357,104.8 357.1,105.1 
	357.2,105.5 357.4,105.6 357.6,105.8 357.9,105.9 358.3,106.2 358.4,106.4 358.3,106.6 358.2,106.8 358,106.8 357.9,107 
	357.6,106.8 357.5,106.8 357.2,106.7 356.8,106.7 356.8,107 356.7,107.4 356.7,107.6 356.6,107.6 356.6,107.8 356.4,107.9 
	356.3,108 355.9,108 355.9,107.9 355.8,107.9 355.1,107.8 355.1,107.6 354.7,107.5 354.6,107.5 354.4,107.4 354.2,107.5 354,107.5 
	354,107.9 353.9,107.9 353.9,108.6 353.8,108.7 353.8,108.8 353.5,109 353.4,109.2 353.1,109.4 352.7,109.5 352.6,109.4 
	352.6,109.2 352.8,109 353,108.7 353.1,108.4 353.2,108.2 353.2,108 353.1,107.9 352.8,108 352.6,108 352.4,107.9 352.3,107.8 
	352,107.8 351.9,108 351.8,108.2 351.8,108.3 351.6,108.4 351.4,108.4 351.2,108.6 351.2,108.8 351.4,109.1 351.6,109.4 
	351.5,109.5 351.2,109.5 351.1,109.4 350.8,109.2 350.4,109.2 350.3,109.4 350.3,110.3 350.4,110.2 350.7,110.2 350.8,110.3 
	350.8,110.6 350.6,110.8 350.4,111 350.2,111.1 350.2,111.4 350,111.4 349.9,111.8 349.9,112 350.3,112 350.6,111.9 350.8,111.5 
	351,111.4 351.2,111.1 351.5,111.1 351.6,111.2 351.6,111.4 351.5,111.6 351.5,112.2 351.6,112.4 351.6,112.6 351.5,112.7 
	351.5,112.8 351.4,113.1 351,113.2 350.7,113.2 350.7,113.4 350.6,113.4 350.4,113.5 350.4,113.4 350.2,113.2 350.2,113.1 
	349.9,112.7 349.8,112.6 349.8,112.4 349.6,112.3 349.4,112.3 349.2,112.4 349.2,112.6 349.1,112.6 349.1,113.1 349,113.4 
	349,113.6 348.8,113.6 348.7,113.8 348.6,113.8 348.2,113.2 347.8,113.2 347.5,113.4 347.4,113.5 346.8,114 346.8,114.7 
	346.4,115.1 346.7,115 347,115.2 347.4,115.5 347.5,115.5 347.5,116 347.4,116.7 347.5,116.8 347.5,117 347.6,117.1 348,117.1 
	348.2,117 348.4,117 348.7,116.8 349.1,116.8 349.5,116.4 349.8,116.3 350.4,116.3 350.4,116.6 350.2,116.8 350,117 350.2,117.8 
	350,118 349.9,118.2 349.9,118.4 350.2,118.4 350.2,120.4 350,120.6 349.9,120.8 349.6,121.4 349.4,121.6 349.2,121.8 349.1,121.9 
	349,121.9 348.7,122.2 348.7,122.3 348.6,122.4 348.7,122.4 349.2,122.7 349.2,123.2 349.6,123.2 349.8,123.4 349.8,123.5 
	349.9,123.6 349.9,123.8 350.2,123.8 350.3,123.9 350.3,124.3 350.4,124.4 350.4,124.6 350.2,124.8 349.9,125 349.9,125.9 
	350,126.3 350,127 347.6,127.1 346.3,127.2 345.9,127.2 345.8,127.4 345.8,127.8 345.9,128 345.9,128.2 346.2,128.3 346.4,128.3 
	346.6,128.4 346.7,128.6 346.7,128.7 346.6,128.8 346.4,128.8 346.2,128.7 346,128.7 345.9,128.6 345.6,128.4 345.5,128.6 
	345.4,128.8 345.4,129.4 345.6,129.9 345.8,130.2 345.9,130.3 346,130.4 346,130.6 346,130.8 345.9,131.1 345.8,131.1 345.6,131.2 
	345,131.2 345,131.1 344.8,131.1 344.6,131 344.3,131 343.9,131.4 343.6,131.5 343.5,131.6 343.4,131.9 343.4,132 343.2,132.2 
	343.2,132.3 343.4,132.4 343.5,132.6 343.8,132.6 343.8,132.7 343.9,132.7 343.8,133 343.5,133.2 343.5,133.4 343.6,133.4 
	343.6,133.5 343.8,133.6 343.9,133.8 343.9,133.9 344,134 343.9,134 343.9,134.2 343.6,134.4 343.4,134.4 343.2,134.6 343.1,134.6 
	343.1,134.7 343,135 342.7,135.1 342.6,135.2 342.3,135.2 342,135.1 341.8,135 341.5,135 341.5,135.5 341.6,135.8 341.6,136.4 
	341.8,136.6 341.9,136.6 342.2,136.4 342.3,136.6 342.4,136.7 342.3,137.2 342.3,137.5 342.6,137.6 343.1,138 343.8,138.7 
	343.8,138.8 343.9,138.8 344,139 344.2,139 344.2,138.8 344.3,138.8 344.3,138.2 344.4,137.9 344.3,137.8 344.4,137.6 344.4,136.6 
	344.6,136.3 344.7,136.2 344.8,136 344.8,135.9 345.4,135.9 345.4,136.4 345.5,136.8 345.5,137.2 345.6,137.4 345.6,137.5 
	345.6,137.6 345.8,137.6 345.9,137.8 346.3,137.8 346.4,138 346.8,138.2 347,138.3 347.2,138.3 347.5,138.8 347.5,139.1 
	347.4,139.4 347.4,139.4 347.1,139.5 346.4,139.5 346.3,139.6 346.3,139.8 346.2,139.8 346.2,140.2 346.3,140.3 346.8,140.3 
	347.1,140.2 347.2,140.2 347.2,141.5 347.1,141.6 347,141.9 347,142.7 346.8,143 346.7,143.1 346.3,143.1 346.2,143.2 346,143.1 
	345.6,143.2 345.5,143.1 345.5,144.2 345.5,144.2 345.4,144.6 345.5,144.7 345.5,144.8 345.4,144.8 345.2,145.1 345.2,145.8 
	345.4,146.2 345.4,146.3 345.2,146.6 345.2,146.8 344.7,146.8 344.7,146.4 344.6,146.4 344.6,146.2 344.4,146.3 344.4,146.2 
	344.2,146 344.2,144.3 344,144.2 344,143.4 344.2,143.1 344.2,143 344,142.8 344,142.7 343.9,142.7 343.9,142.6 343.8,142.3 
	343.8,141.9 343.6,141.8 343.4,141.5 343.2,141.5 343.1,141.6 342.2,141.6 341.9,141.5 341.8,141.4 341.5,141.1 341,141.1 
	340.8,141.2 340.7,141.5 340.6,141.6 340.7,141.6 341,141.9 341.1,141.9 341.1,142 341.2,142 341.4,142.2 341.5,142.3 341.5,142.4 
	341.6,142.6 341.6,142.8 341.5,143 341.5,143.2 341.2,143.4 341.1,143.5 341,143.6 341,143.8 340.8,143.8 340.8,143.9 340.7,144 
	340.7,144.4 340.8,144.7 341,144.7 341.1,144.8 341.2,145 341.2,145.2 341.4,145.4 341.5,145.5 341.5,145.9 341.4,146 341.4,146.3 
	341.2,146.7 340.4,147.5 340.2,148 339.8,148.4 339.6,148.4 339.4,148.8 339,149.1 338.7,149.4 338.4,149.6 338.3,149.9 338.2,150 
	337.9,150.7 337.8,150.7 337.8,151 337.6,151.4 337.4,152 337.5,152 337.2,152.3 337.2,152.7 337.1,153.8 337.1,154 337,154.7 
	336.8,155 336.8,155.5 336.7,155.6 336.7,156 336.4,156.6 336.4,157 336.3,157.1 336.2,157.5 336,157.8 336,159.2 335.9,159.5 
	336.2,159.5 336.3,159.4 336.8,159.1 336.6,160.3 335.9,162 335.6,162.2 335.8,162.3 335.9,162.6 336,162.7 336,162.6 336.2,162.4 
	336.3,162.3 336.6,162.2 337,161.8 337,161.6 337.1,161.5 337.2,161.4 337.4,161.2 337.4,161.1 337.5,160.7 337.8,160.4 
	337.8,160.3 337.9,160 338,160 338.2,159.9 338.2,159.8 338.3,159.4 338.3,158.8 338.4,158.7 338.3,158.2 338.3,157.6 338.2,157.4 
	338.2,156.2 338.3,156 338.3,153.4 338.4,153.2 338.4,151.9 338.6,151.6 338.6,151.5 338.7,151.2 339,150.8 339.2,150.6 
	339.4,150.4 339.6,150.3 339.8,150.2 340.2,149.9 340.3,149.8 340.6,149.6 340.7,149.6 340.8,149.5 341.1,149.4 341.2,149.4 
	341.8,149.1 342,149 342.3,148.8 342.6,148.7 343,148.8 343.2,149.1 343.2,149.9 343.1,150 343.1,150.6 343,150.7 343,150.8 
	343.1,151 343.1,151.2 343.4,151.4 343.5,151.6 343.4,151.9 343.2,152.2 343.1,152.3 342.8,152.6 342.6,152.8 342.4,153 342,153.4 
	341.8,153.8 341.6,154.2 341.5,154.3 341.5,154.4 341.4,154.7 341.4,155 341.5,155.1 341.6,155.5 341.8,155.6 341.8,156 
	341.6,156.4 341.6,156.8 341.5,157 341.5,157.2 341.4,157.4 341.4,158.2 341.2,158.7 341.2,159.2 341.1,159.5 341.1,159.9 
	341,159.9 341,160 340.7,160.2 340.7,160.3 340.6,160.3 340.6,160.4 340.4,160.7 340.3,161 340.3,161.4 340.2,161.8 340.2,162 
	340,162.4 340.2,162.6 340.2,162.8 340.4,163 340.8,163 341,162.8 341.1,162.6 341.4,162.4 342,162.4 342.3,162.3 342.6,162.3 
	342.6,162.7 342.4,163.1 342.4,163.6 342.6,163.8 342.6,164 342.7,164.7 342.8,164.8 342.8,165.2 342.7,165.2 342.7,165.9 
	342.6,166 342.6,166.7 342.7,166.8 342.7,167 342.4,167.2 342.2,167.2 342.2,167.4 342,167.4 342,167.8 341.8,168 341.6,168.2 
	341.5,168.2 341.2,168.3 339.6,168.3 339.2,168.4 339.1,168.4 338.7,168.3 338.4,168.2 338.3,168.2 338.3,168 338.2,168 
	338.2,167.5 338,167.4 337.9,167.4 337.6,167.2 337.4,167 337.1,166.8 337,166.8 336.8,166.7 336.4,166.7 336.3,167 336.2,167.1 
	336.3,167.2 336.4,167.5 336.6,167.8 336.6,168.3 336.4,168.3 336.4,168.4 336.3,168.6 336.3,168.8 336.2,169.1 336.3,169.5 
	336.3,170 336.4,170.3 336.4,170.6 336.6,170.7 336.7,171.1 336.8,171.6 337,171.8 336.8,171.9 336.6,172 336.4,172 336.4,172.2 
	336.2,172.3 336,172.3 335.9,172.4 335.5,172.7 335.1,173.2 334.7,173.5 334.6,173.6 334.4,173.8 334.3,173.8 334.2,173.9 
	333.5,174.2 333.4,174.2 333.1,174.4 333.1,174.6 333,174.7 332.8,174.7 332.6,175 332.3,175.1 332.2,175.1 331.9,175.2 
	331.8,175.5 331.6,175.6 331.5,175.8 331.4,175.8 331.2,175.9 331.4,176 331.5,176 331.5,176.1 331.6,176.4 331.6,176.5 
	331.9,176.5 332,176.4 332,176.1 332.2,176 332.3,175.9 332.4,175.8 332.6,175.6 332.7,175.5 333.2,175.5 333.4,175.6 333.8,175.6 
	333.8,175.5 333.9,175.5 334,175.2 334.2,175.1 334.4,175.1 334.7,175.2 334.8,175.1 335,175 335.5,175 336,175.4 336.6,175.4 
	336.8,175.5 336.8,175.6 337,175.8 337.1,176 337.2,176.1 337.2,176.4 337.4,176.7 337.4,177.5 337.2,177.6 337.2,177.9 337.1,178 
	337.1,178.5 337.2,178.8 337.5,178.8 337.9,178.4 337.9,178.3 338,178 338,177.6 338.2,177.1 338.2,176.9 338.3,176.8 338.4,176.8 
	338.6,176.7 338.7,176.7 338.8,176.6 338.8,176.4 339,176.3 338.8,176 339,176 339,175.9 339.1,175.8 339.2,175.6 339.2,175.5 
	339.4,175 339.4,174.8 339.5,174.7 339.5,174.4 339.6,174.2 340.2,174.2 340.3,174.3 340.6,174.4 340.6,174.6 340.8,174.7 
	341,174.8 341.2,175 341.5,175.1 341.5,175.4 341.4,175.5 341.2,175.8 341.2,176.3 341.1,176.4 341.1,177.5 341.2,177.9 
	341.1,178.1 341.1,178.5 341,178.7 341,179.3 341.1,179.7 341.5,180.1 341.9,180.8 342,181.2 342.2,181.2 342.2,181.5 342.3,181.9 
	342.4,182 342.4,182.3 342.6,182.4 342.6,182.5 342.7,182.8 342.7,183.1 342.8,183.1 342.8,183.7 342.6,184 342.6,184.1 
	342.4,184.3 342.2,184.4 341.8,184.4 341.5,184.5 341.5,184.8 341.4,185.1 341.4,185.6 341.2,185.9 341.2,186.5 341.1,186.8 
	341.1,187.7 341,188.3 341,188.8 341.1,188.9 341.1,189.5 341.2,189.6 341.2,189.7 341.4,190.1 341.4,190.3 341.5,190.5 
	341.6,190.8 341.8,190.9 341.9,191.2 342,191.3 342.3,191.6 342.4,191.2 342.6,190.9 342.8,190.4 343.1,189.7 343.2,189.2 
	343,189.3 342.4,189.3 341.6,189.6 342,189.2 342.8,188.9 343.4,188.9 343.5,188.8 343.6,188.4 343.8,188.3 343.9,188.1 343.9,188 
	344.2,187.6 344.4,187.6 344.4,187.5 344.6,187.3 345,186.9 345.2,186.8 345.2,186.7 345.4,186.5 345.6,186.3 345.8,186 345.9,186 
	346,185.9 346.2,185.7 346.3,185.7 346.4,185.6 346.7,185.6 346.8,185.5 347,185.5 347.2,185.3 347.4,185.2 347.5,185.2 
	347.6,185.1 347.6,184.9 347.8,184.8 347.9,184.5 348,184.4 348,184.3 348.2,184 348.3,183.7 348.4,183.6 348.4,183.3 348.6,183.2 
	348.7,183.1 349,182.9 349,182.8 349.1,182.7 349.4,182.4 349.5,182.3 349.9,181.9 350,181.7 350.2,181.6 350.3,181.6 350.7,181.3 
	350.7,182.3 350.6,182.4 350.2,183.3 349.4,184 349.2,184.1 349,184.5 348.7,185.6 348.6,185.7 348.2,186.1 348,186.4 347.9,186.5 
	347.6,186.8 347.5,186.9 347.4,187.1 347.1,187.2 347.1,187.3 347,187.3 347,187.5 346.8,187.6 346.8,187.7 346.7,188.1 
	346.6,188.4 346,188.5 345.8,188.7 345.6,188.8 345.5,188.9 345.4,189.1 345.4,189.2 345.2,189.3 345.1,189.5 345,189.9 344.8,190 
	344.7,190.1 344.6,190.3 344.4,190.4 344.2,190.9 343.9,191.2 343.9,191.3 343.8,191.3 343.8,191.5 343.5,192 342.8,194 
	342.6,194.4 342.7,194.5 342.7,195.3 342.6,195.6 342.6,196.3 342.4,196.4 342.4,196.7 342.6,196.9 342.6,197.5 342.7,197.7 
	342.7,198.1 342.8,198.4 342.8,198.5 343,198.9 343.1,199.2 343.4,199.9 343.4,200 343.5,200.4 343.6,200.7 343.6,201.5 
	343.8,201.7 343.8,202.4 343.9,202.5 343.9,202.8 344,203.2 344,203.6 344.2,203.7 344.2,205.2 344,205.5 344,205.7 343.9,205.9 
	343.9,206.3 343.8,206.4 343.6,206.7 343.5,207.1 343.4,207.1 343.4,207.2 343.1,207.6 343,208.1 342.7,208.5 342.6,209.1 
	342.4,209.2 342.4,209.3 342.3,209.5 342.3,209.7 342.2,209.9 342.2,210.1 342,210.3 342,210.7 341.9,210.9 341.8,211.3 
	341.8,211.6 341.6,211.7 341.6,212 341.5,212 341.5,212.1 341.2,212.8 341.2,213.2 341.1,213.7 341.9,213.7 341.9,214 342,214.4 
	341.9,214.7 341.9,214.8 341.8,214.9 341.6,215.5 341.5,215.7 341.5,216.5 341.8,216.9 341.8,217.1 341.6,217.3 341.6,217.7 
	341.5,218.1 341.5,218.3 341.6,218.5 341.6,218.9 341.8,219.2 341.9,219.6 341.9,219.7 342,220 342.3,220.7 342.3,220.8 
	342.4,221.2 342.4,221.9 342.3,222.3 342.3,222.5 342.2,222.7 342.2,223.1 342,223.2 342,223.9 341.9,224 341.9,224.3 341.8,224.5 
	341.6,224.8 341.6,225.2 341.9,225.5 342,225.5 342,225.6 342.4,225.6 342.7,225.5 342.7,224.4 342.8,224.3 342.8,224.1 
	343.8,224.1 343.9,224 344.2,223.9 344.2,224 344.3,224 344.6,224.5 344.6,224.8 344.7,224.9 344.8,225.1 345,225.3 345.1,225.5 
	345.9,225.5 346.2,225.6 346.3,225.7 346.4,225.7 346.4,226.3 346.3,226.4 346.3,226.5 346.2,226.7 345.8,226.7 345.6,226.5 
	344.8,226.5 344.7,226.4 344,226.4 343.8,226.3 343.1,226.3 343,226.1 342.8,226.3 342,226.3 341.9,226.4 341.8,226.4 341.8,226.9 
	341.9,227.1 341.9,227.2 341.8,227.6 341.8,228 341.6,228.1 341.6,228.3 341.5,228.4 341.5,228.7 341.4,228.8 341,229.2 341,229.3 
	340.7,229.5 340.3,229.6 339.6,229.6 339.5,229.5 339.1,229.5 339,229.6 338.3,229.6 338.2,229.7 338,230 337.9,230 337.6,230.3 
	337.4,230.4 337.2,230.4 337.1,230.1 337.1,230 336.8,229.7 336.8,229.6 336.7,229.5 336.7,228.7 336.6,228.7 336.6,228.3 
	336.7,228.1 336.7,227.7 336.8,227.7 336.7,227.5 336.7,227.5 336.7,227.5 336.7,227.1 336.6,226.8 336.6,226.7 336.4,226.5 
	336.3,226.4 335.5,226.4 335.5,225.9 335.2,225.6 334.8,224.8 334.8,224.1 335,223.7 334.8,223.5 334.6,223.3 333.6,223.3 
	333.5,223.5 333.4,223.6 333.4,224.4 333.2,224.5 333.2,224.7 333.1,224.9 333.1,225.3 333,225.5 333.1,225.6 333.1,226 
	333.4,226.3 333.4,226.5 333.5,226.7 333.4,227.1 333.4,227.2 333.5,227.3 333.5,227.5 333.8,227.6 333.9,227.9 334.2,227.9 
	334.3,228.1 334.3,228.3 334.4,228.4 334.4,229.1 334.3,229.3 334.3,230.8 334.2,230.9 334.2,231.3 334,231.6 334,231.7 
	333.9,231.9 333.8,232.1 333.6,232.4 333.4,232.8 333.2,233.1 332.8,233.6 332.7,233.7 332.6,233.9 331.6,234.8 331.1,235.3 
	330.6,235.6 330,235.9 329.8,236.1 329.9,236.3 330,236.4 330.2,236.7 330.4,236.8 330.6,236.9 330.8,236.9 331.4,236.7 
	331.6,236.4 331.9,236.1 331.9,236 332,236 332,235.9 332.3,235.6 332.6,235.3 332.8,235.1 333,234.8 333.1,234.7 333.2,234.4 
	333.4,234.4 333.5,234.3 333.8,234.1 334,233.9 334.2,233.7 334.2,233.6 334,232.9 334,232.4 334.3,231.9 335,230.9 335.8,230.7 
	336.3,230.7 336.4,230.8 336.4,230.9 336.6,231.1 336.8,231.3 337,231.3 337.2,231.5 337.2,231.6 337.4,231.6 337.5,231.9 
	337.8,232.7 337.8,233.1 337.9,233.7 337.9,234.3 338,234.7 337.9,234.9 337.9,235.1 337.8,235.2 337.6,235.3 337.5,235.5 
	337.1,235.6 337,235.7 336.8,235.9 336.7,236 336.6,236.1 336.3,236.3 336,236.3 336,236.4 335.8,236.4 335.8,236.5 335.6,236.7 
	335.6,236.8 335.8,236.9 335.8,237.1 336.2,237.1 336.3,237.2 336.4,237.2 336.4,237.6 336.2,238 336,238.1 336,238.4 335.9,238.7 
	335.9,238.9 335.8,239.1 335.8,239.9 335.6,239.9 335.6,240.1 335.4,240.3 335.4,240.5 335.2,240.5 335.2,240.8 335.4,240.9 
	335.8,241.5 336,241.9 336.2,241.9 337.1,240.9 337.2,240.8 337.5,240.5 337.5,239.7 337.6,239.6 337.6,239.1 337.5,238.8 
	337.2,238.5 337.1,238.5 337.1,238.3 337.2,238.1 337.2,238.3 337.4,238.1 337.8,238 337.9,237.9 338,237.9 338.3,237.6 
	338.3,237.5 338.4,237.3 338.6,237.2 338.7,237.1 338.7,236.9 338.8,236.8 338.8,236.4 339,236.4 339,236.1 339.1,235.7 
	339.2,235.7 339.2,234.8 339.5,234.5 339.6,234.4 339.6,234.1 339.5,234.1 339.2,233.9 339.1,233.6 339.1,233.5 339.2,233.3 
	339.2,233.2 340.2,232.3 340.6,232.3 340.6,232.4 340.7,232.5 340.7,233.1 340.8,233.2 341,233.3 341.2,233.3 341.4,233.5 
	341.4,233.7 341.5,233.9 341.5,234.3 342,234.3 342,234.4 342.2,234.5 342.2,235.2 342,235.5 342,236.4 341.9,236.9 341.9,237.5 
	342,237.6 342.6,237.9 342.7,238 342.8,238 343.1,238.4 343.4,238.7 343.4,239.3 343.1,239.6 343.1,240.1 343.2,240.4 343.4,240.3 
	343.6,240.3 343.8,240.4 344,240.5 344.2,240.1 344.4,240 344.8,239.7 345.1,239.2 345,239.1 345,238.9 344.7,238.7 344.6,238.5 
	344.3,238.4 344.3,238 344.4,237.9 344.6,237.6 344.6,236.8 344.4,236.5 344.4,236 344.7,236 344.8,236.1 344.8,236.3 345,236.5 
	345.1,236.7 345.1,237.1 345.2,237.2 345.4,237.3 345.5,237.3 345.5,237.2 345.6,237.2 345.8,237.1 345.8,236.9 345.9,236.3 
	345.9,236 346,235.9 346,235.5 346.2,235.2 346,235.1 345.9,234.8 345.9,234.5 345.8,234.4 345.8,234 345.9,234 345.9,233.9 
	346,233.7 346.2,233.6 346.2,233.5 346.3,233.5 346.3,233.2 346.4,233.1 346.3,232.7 346.3,232.5 346.2,232.4 346,232.1 346,232 
	345.9,231.7 345.9,231.6 345.5,231.6 345.4,231.7 345.2,231.9 344.8,232 344.8,231.7 345,231.3 345.1,230.7 345.5,230.3 345.5,230 
	345.8,229.9 346,229.5 346.3,228.9 346.3,228.5 346.4,228.4 346.6,228.3 346.8,228.3 347.1,228.4 347.2,228.4 347.2,228.4 
	347.8,228.5 347.9,228.5 348.2,228.4 348.4,228.3 348.4,228.1 348.6,228.1 348.6,228 348.7,227.9 348.7,227.7 348.8,227.6 
	348.8,227.5 349,227.3 349,227.2 349.1,226.9 349.2,226.7 349.2,226.4 349.4,226.1 349.4,225.9 349.5,225.7 349.5,225.3 
	349.6,225.5 349.9,225.5 349.9,225.6 350,225.7 350,226.7 349.9,227.3 349.9,228 349.8,228.1 349.8,228.4 349.6,228.5 349.6,228.9 
	349.5,229.1 349.5,229.6 349.4,229.9 349.3,230 349.1,230.1 348.8,230.3 348.7,230.4 348.7,230.5 348.6,230.7 348.4,230.9 
	348.3,231.1 348.3,231.2 348.4,231.5 348.4,232.4 348.6,232.9 348.4,233.3 348.4,233.9 348.7,234.1 348.7,234.5 348.4,234.9 
	348.3,235.2 348.2,235.5 347.9,235.6 347.9,238.8 348,239.1 348,239.2 348.3,239.3 348.8,239.3 349,239.5 349.1,239.7 349.1,240.1 
	349,240.4 349,240.9 349.1,241.7 349.2,242.3 349.4,241.7 349.6,241.5 349.8,240.9 349.9,240.8 350.2,240.7 350.3,240.3 350.4,240 
	350.6,239.7 350.7,239.7 350.8,239.5 350.8,238.9 350.7,238.9 350.6,238.8 350.4,238.8 350.3,238.5 350.3,238.4 350.6,238 
	350.7,237.9 350.7,237.7 350.4,237.6 350.3,237.6 350.2,237.7 350,237.9 349.8,237.9 349.6,237.6 349.6,237.3 349.5,237.3 
	349.1,237.2 348.8,237.1 349,236.9 349,236.8 349.2,236.7 349.4,236.5 349.6,236.3 349.8,236 349.9,235.7 349.8,234.7 349.8,233.1 
	349.6,232.7 349.5,232.4 349.4,232.3 349.4,231.9 349.5,231.7 349.5,230.9 349.6,230.8 349.9,230.8 349.9,230.9 350,230.9 
	350.2,231.2 350.3,231.5 350.6,231.7 350.7,231.7 350.8,231.9 351,232 351,232.1 351.1,232.4 351.1,233.5 351,233.7 350.8,233.9 
	350.8,234 350.7,234.4 350.6,234.7 350.6,235.1 350.7,235.2 350.8,235.2 351,234.9 351.1,234.7 351.1,234.4 351.2,234.3 351.4,234 
	351.5,234 351.6,234.1 351.6,234.5 351.5,234.9 351.5,235.1 351.6,235.2 351.6,235.5 351.5,235.5 351.4,235.6 351.4,235.9 
	351.9,236 352,236 352,236.3 352.2,236.3 352.2,236.4 354.7,236.5 355.1,236.4 355.2,236.4 355.5,236.3 355.6,236.3 355.8,236.4 
	355.8,236.5 355.9,236.5 355.9,237.1 356,237.1 356,237.2 356.2,237.2 356.3,237.3 356.4,237.5 356.6,237.6 356.4,237.7 356.2,238 
	355.6,238.3 355.2,238.7 355.2,238.8 355.4,238.8 355.4,238.9 355.8,238.9 355.8,239.3 355.9,239.5 356.2,239.5 356.2,239.6 
	356.3,239.7 356.6,239.6 356.8,239.6 356.8,239.2 356.7,238.9 356.7,238.7 357.2,238.7 357.4,238.5 357.5,238.5 357.6,238.7 
	357.6,238.9 358.2,238.9 358.2,239.3 358.6,239.3 358.6,239.6 358.4,239.9 358.3,239.9 358.4,240.1 358.4,240.3 358.3,240.5 
	357.9,240.5 357.6,240.7 357.5,240.8 357.2,240.9 356.3,241.1 355.8,241.2 355.8,240.9 355.6,240.9 355.5,240.8 355.2,240.7 
	355.1,240.5 355,240.3 354.8,240.1 354.8,239.7 354.7,239.6 354.7,238.9 354.6,238.9 354.3,238.7 354.2,238.7 353.9,238.5 
	353.6,238.5 353.4,238.4 353.2,238.4 353.1,238.5 353,238.5 352.7,238.7 352.7,238.8 352.4,239.1 352.3,239.3 352.2,239.5 
	351.9,239.6 351.8,239.9 351.8,240.9 351.6,241.5 351.6,241.7 351.8,242 351.9,242.3 352,242.8 352.2,243.5 352.2,244 352.3,244.7 
	352.8,245.2 353,245.9 352.8,246.5 353,247.2 353.9,247.5 355,247.9 354.8,248.7 354.3,248.8 353.2,248.5 352.7,248.5 352.2,249.1 
	352,249.9 352.6,250 353.2,249.7 353.6,249.9 353.2,250.3 352.7,250.5 352.4,251.1 352.7,251.3 353.2,251.5 353.5,251.9 
	353.2,252.4 353,253.2 352.8,253.9 352.3,254.3 352.7,254.8 353.2,255.7 353.5,256.3 353.6,256.8 353.4,257.2 352.8,257.3 
	352.7,257.6 352.7,258 352.8,258.1 353.1,258.3 353.4,258.4 353.6,258.5 353.5,258.8 353.4,258.9 353.2,259.1 353.1,259.2 
	352.8,259.3 352.4,259.5 352.3,259.3 351.9,259.1 351.6,259.1 351.2,259.5 351.1,259.3 351,259.1 351.2,258.5 351.1,258.4 
	350.7,258.1 350.4,258.1 350.2,258 349.9,257.6 349.5,257.5 349.2,257.7 349.1,258 349.1,258.3 348.8,258.9 348.3,259.6 
	348.3,259.9 348,260.3 347.8,260.1 347.4,260.1 347.1,260.3 347.1,260.5 347.4,260.8 348.7,260.8 348.7,261.5 348.2,261.9 
	347.5,262 347,262 346.4,261.9 346,261.7 345.6,261.5 345.2,261.2 344.8,260.9 344.8,260.3 344.7,260.1 344.3,260.1 344.2,260.4 
	344.2,260.9 344,261.2 344,261.5 344.2,261.9 344.2,262.3 344,262.7 343.9,263.2 343.5,263.6 343.4,263.9 343,264.3 342.6,264.8 
	342,265.3 341.6,265.5 341.4,265.7 341.1,266.1 340.6,266.3 340.3,266.3 340,266.5 339.9,266.7 339.5,267.1 339.2,267.7 339,267.9 
	338.6,267.9 338.3,268.1 338.3,268.9 338.2,269.2 338.2,269.5 338.3,270.1 338.4,270.7 338.6,271.1 338.7,271.6 339.1,272 
	339.5,272.4 340.2,272.9 340.8,273.5 341.4,273.9 342,274.4 342.4,275.1 342.6,275.7 342.4,276.3 342.2,276.8 341.9,277.2 342,278 
	342,279.5 341.9,279.9 341.8,280.1 341.6,280.5 341.4,280.9 341.2,281.2 341.2,281.3 340.8,281.3 340.8,280.9 340.4,280.8 
	340.2,280.9 340.2,281.2 339.9,281.6 339.5,281.6 339,281.5 338.4,281.3 337.6,281.2 337.1,281.2 336.3,281.3 336,281.5 
	335.5,281.5 334.8,281.6 334.6,281.7 333.8,281.7 332.7,282 331.9,282 331.4,281.8 330.6,281.7 329.9,281.6 329.5,281 329.2,280.5 
	329.1,280 329,279.6 328.4,279.1 328.2,278.9 327.8,278.7 327.5,278.4 327.5,278.3 327.4,278.1 327.2,278.4 327.2,279.1 327,279.3 
	326.7,279.3 326.6,279.2 326.4,278.9 326,278.9 325.8,279.1 325.5,278.9 325.4,278.7 325.1,278.5 324.7,278.5 324.4,278.7 
	324.2,278.8 324.2,279.1 324.3,279.3 324.4,279.3 324.7,279.5 325.2,279.5 325.5,279.6 325.6,279.7 325.8,279.9 326,280.3 
	326.3,280.3 326.4,280.4 326.8,280.5 327,280.7 327.2,281 327.5,281.5 327.8,281.8 328.4,282.4 328.7,282.6 328.8,283 329,283.3 
	329,283.7 328.8,284 328.8,284.8 328.7,285 328.7,286.1 328.6,286.5 328.2,286.9 327.6,286.9 327.1,287.2 326.7,287.4 326.3,287.6 
	325.8,287.8 325.4,288.2 324.8,288.2 324.3,288 324.2,287.7 324,287.4 323.9,287.2 323.9,286.6 324,286.1 324.3,285.7 324.4,285.3 
	324.4,283.8 324.3,283.6 324.4,283.2 324.2,283.3 323.8,283.3 323.4,283.2 323.1,283.3 323,283.4 322.7,284 322.4,284.1 
	322.3,283.8 322.2,283.6 322,283.7 321.9,284 321.6,284 321.4,283.8 321.2,284.1 320.8,284.1 320.6,284.2 320.2,284.8 319.9,284.9 
	319.8,284.9 319.5,285 319.2,285.2 319,285.4 319,285.8 319.1,286 319.1,286.1 319.4,286.4 319.5,286.5 319.5,286.8 319.8,287 
	319.6,287.6 319.6,288.2 319.9,288.5 320.2,288.9 320.4,289.2 321,289.3 321.5,289.6 321.8,290.1 321.9,290.5 321.9,291.2 
	321.8,291.3 321.5,291.3 321.1,291.2 321,291 320.6,291 320.3,291.4 320.3,291.8 320,292.5 320,292.9 319.9,293.3 320,293.7 
	320.3,294 320.6,294.2 320.8,294.5 321,294.6 321.1,294.8 321.2,294.9 321,295 320.6,295 320.3,295.2 320,295.2 319.9,294.8 
	319.9,294.5 319.8,294.2 319.6,294.1 319.4,294.1 319.2,294.2 318.8,295.2 318.3,295.4 318,295.6 317.6,295.7 317.4,295.8 
	317,295.8 316.7,295.7 316.6,295.4 316.8,295.2 317.1,295 317.5,294.9 318.3,294.9 318.4,294.8 318.3,294.5 317.2,294.5 
	316.4,294.4 316.4,294.2 316.3,294.2 316.2,294.1 316,293.8 315.2,293.8 315,293.6 314.6,293.6 314.3,294 314,294 313.9,293.8 
	313.9,293 313.8,292.9 313.5,292.8 313.2,292.5 313,292.4 312.8,292.5 313,292.9 312.8,292.8 312.4,292.5 312,292.2 311.5,292.2 
	311.1,292.1 310.7,292 310.6,292.2 310.1,292.2 309.7,292.4 309.1,292.4 308.7,292.2 308.5,291.8 308.5,291.4 308.1,291.3 
	307.4,291.2 307,290.9 306.2,290.5 305.7,290.1 305.3,289.6 305,289.2 304.6,288.9 303.9,289.6 304.2,290.6 304.6,291.3 304.9,292 
	305.4,292.8 305.8,293.3 306.1,293.7 305.5,294.6 305,295.4 304.6,296.2 304.3,297.2 304.2,297.6 304.3,298.3 304.3,298.9 
	304.5,299.7 304.5,300.6 304.9,301.6 305.3,302.2 305.7,303 305.8,303.6 306.1,304.5 305.9,305.3 306.1,306 306.1,306.9 
	306.2,307.6 306.2,308.2 306.1,309.2 305.7,309.3 305.5,309.4 305.3,309.7 305.3,309.4 304.7,309.6 304.2,310.1 303.9,310.6 
	303.4,311 303.3,311.6 303.1,312 302.6,312.5 302.2,312.4 301.8,312.2 301.4,312.2 300.9,312.1 300.3,312 299.9,311.7 299.5,311.6 
	299,311.4 298.5,311.4 298.5,310.8 298.9,310.2 299.1,309.8 299.5,309.4 299.8,309 300.5,308.8 301.1,308.8 301.7,308.6 
	301.9,308.4 301.8,308.2 301.5,308.1 301.4,308 301.3,307.7 301.1,307.6 301,307.4 300.6,307.6 300.5,307.4 300.7,306.8 
	301.1,306.1 301.5,305 301.7,304.1 301.8,303.2 301.7,302.2 301.8,301.4 302.1,300.8 302.3,300 302.2,299.3 301.8,298.9 
	301.5,298.4 301.5,297.8 301.8,297.3 302.3,297 302.9,296.5 302.7,296.2 302.7,296.1 302.7,296 302.6,296 302.5,296 302.3,296.1 
	302.1,296.1 301.8,296 301.7,295.8 301.3,295.8 301.3,296.8 301,297 300.9,296.9 300.7,296.9 300.7,296.8 300.6,296.6 300.6,295.7 
	300.7,295.6 300.7,295.4 300.9,295.2 300.9,294.9 300.5,294.9 300.5,295.2 300.3,295.3 300.2,295.3 299.9,295.4 299.8,295.6 
	299.8,295.8 299.9,296.1 299.8,296.4 299.7,296.6 299.8,296.9 299.9,297 299.9,297.4 300.1,297.8 300.6,298 300.7,298.1 
	300.7,298.4 301,298.8 301.1,298.8 301.4,299 301.4,299.3 301.3,299.4 301.1,299.7 301.1,300.1 301.3,300.2 301.1,300.4 
	301.3,300.9 301,301.2 300.9,301 300.6,301 300.2,300.9 300.1,300.8 299.9,300.5 299.8,300.4 299.5,300.1 299.3,300.4 299.3,300.5 
	299.1,300.8 299,300.9 298.9,301.2 298.7,301.2 298.5,301 298.5,299.7 298.2,299.7 297.9,299.8 297.8,300.1 297.3,300.5 
	297.1,300.8 297,301.2 297.3,301.3 297.5,301.3 297.8,301 298.1,301.2 298.2,301.3 298.1,301.6 297.9,301.7 298.1,302 298.2,302.1 
	298.3,302.4 298.2,302.5 298.1,302.9 298.3,303.2 299.1,303.2 299,303.4 298.7,303.6 298.9,304 299.1,304.1 299,304.5 298.9,304.5 
	299,304.8 299.1,305.2 299.3,305.4 299.3,305.7 299.1,306 298.9,306.1 298.6,306.1 298.2,305.8 297.9,305.8 297.7,306.1 
	297.5,306.6 297.5,307.2 297.3,307.6 297,307.8 296.9,308.1 296.7,308.8 296.3,309 296.1,309.2 295.9,309.6 296.1,309.8 296.2,310 
	296.5,310.1 296.5,310.4 296.1,310.5 295.7,310.5 295.4,310.6 295.3,310.6 295.3,311 295.5,311.2 295.8,311.4 296.2,311.7 
	296.5,311.8 296.7,312.2 296.9,312.6 296.7,313.2 296.6,313 296.3,313 296.1,312.9 295.7,312.9 295.3,312.8 294.6,312.8 
	294.3,312.9 293.9,313 293.8,313.2 293.7,313.3 293.4,313.6 293.3,313.8 293.3,313.7 293,313.6 292.9,313.6 292.5,313.7 
	292.5,313.8 292.2,314.1 292.1,314.4 291.9,314.5 291.8,314.8 291.7,315 291.5,315.3 291.4,315.3 291.3,315.6 291.1,315.6 
	291,315.7 290.9,315.7 290.7,315.6 290.7,315.3 290.9,314.9 291.5,314.2 291.4,314.1 291.1,314.1 290.6,314.2 290.1,314.4 
	289.9,314.2 289.8,314.2 289.7,314.1 289.5,314.1 289.4,314.2 289.3,314.5 289.3,314.8 289,314.9 288.7,315 288.6,314.9 
	288.3,314.9 287.9,315.2 287.9,315.3 287.7,315.4 287.5,315.6 287.1,315.3 287,315.4 286.9,315.7 286.6,316 286.5,316.1 
	286.3,316.4 286.5,316.5 287.3,316.5 287.7,316.4 288.1,316.4 288.5,316.5 288.9,316.5 289.1,316.4 289.3,316.2 289.5,316.2 
	289.8,316.5 289.9,316.8 289.9,317.3 290.2,317.7 290.2,317.8 290.1,318.5 290.1,318.9 289.8,319.2 289.7,319.3 289.1,319.3 
	288.6,319.2 288.2,319 287.9,319 287.8,318.9 287.7,318.8 287.4,318.6 287.1,318.6 286.9,318.5 286.6,318.5 286.2,318.4 
	285.8,318.6 285.8,318.9 286.1,318.9 286.3,319 286.5,319.2 286.7,319.3 287,319.4 287.3,319.7 287.5,320 287.8,320.1 288.2,320.5 
	289.1,320.5 289.7,320.6 289.9,320.5 290.6,320.1 291.1,319.8 291.5,319.7 292.3,319.7 292.6,319.6 293,319.4 293.9,319.4 
	294.1,319.7 294.1,321.2 293.5,321.4 293.3,321.6 292.7,321.7 292.2,321.7 291.8,321.4 291.5,321.6 291,321.4 290.6,321.3 
	290.3,321.2 289.9,321.3 289.8,321.4 289.4,321.4 289.1,321.3 288.9,321.2 288.5,321 287.7,321.2 287.1,321.3 287,321.4 
	286.9,321.7 286.7,322.1 286.5,322.2 286.1,322.2 285.8,322.1 285.4,322 284.6,321.7 284.2,321.6 283.9,321.8 283.8,322.1 
	283.8,322.5 284.1,322.6 284.2,322.6 284.7,322.8 285.1,322.9 285.8,323.2 286.6,323.3 287.4,323.4 288.1,323.6 288.5,323.4 
	288.9,323.6 289.3,323.7 289.4,324 289.4,324.2 289.1,324.5 289,324.6 288.7,324.6 288.3,324.5 287.7,324.5 287.1,324.4 
	286.7,324.2 286.2,324.1 284.9,324.1 284.3,324.4 284.2,324.6 284.1,324.8 284.2,325 284.2,325.3 284.1,326.1 284.1,326.4 
	283.9,326.5 283.8,326.6 283.3,326.6 282.9,326.8 282.6,327 282.2,327.2 281.9,327.2 281.5,327.7 281.3,327.8 281,328.1 
	280.7,328.6 280.5,328.9 280.1,329 279.8,329 279.7,328.9 279.7,328.9 279.3,328.9 279,329.2 278.9,329.2 278.7,329 278.6,328.8 
	278.3,328.6 278.2,328.5 278.2,327.8 278.1,327.7 277.4,328.2 276.7,328.5 276.3,328.6 275.4,328.6 274.9,328.8 274.3,329 
	273.7,329.4 273.1,329.7 272.5,329.7 271.8,330.1 271.1,330.9 270.7,331.6 270.6,332.2 269.3,331.8 268.7,331.7 268.3,331.4 
	267.9,331.2 267.8,331.2 267.4,330.9 267.4,329.7 267.3,329.4 267.7,329 268.3,329.2 268.9,329.3 269.7,329.4 270.1,329.3 
	270.3,328.9 270.1,328.5 269.5,328.4 268.9,328.5 268.7,328.1 268.9,328 269.5,328 270.1,327.8 270.5,327.4 270.9,327.2 271.4,327 
	271.9,326.8 272.1,326.4 272.5,325.8 273,326 273.3,325.8 273.7,325.8 273.8,326 273.9,326.4 273.8,326.8 273.8,327.2 274.1,327.2 
	274.5,327 274.6,327.2 274.7,327.3 275,327.4 275.1,327.3 275.7,327.3 275.8,326.9 276.1,326.8 276.5,326.4 276.7,325.7 
	275.5,325.7 275.5,325 275.4,324.9 275.3,324.6 275.4,324.2 275.8,324 276.1,323.8 276.3,323.8 276.4,323.7 276.4,323.7 
	278.5,323.7 278.9,323.6 279.5,323.6 279.5,322.2 279.4,322 279.3,321.7 279.7,321.8 280.1,321.6 280.2,321 280.3,320.5 
	280.3,319.8 279.9,319.2 279.8,318.5 279.7,317.8 279.5,317.3 279.7,316.9 279.7,316.6 279.8,315.8 279.8,314.8 279.9,314.2 
	279.9,314.1 279.8,314 279.5,313.6 279.1,313.4 278.6,313.4 278.3,313 278.1,312.8 277.9,312.6 277.8,312.2 277.7,312.1 
	277.5,311.8 277.3,311.4 276.6,311.4 276.1,311.6 275.5,311.8 274.6,312.1 274.2,312.4 273.3,312.2 272.7,312.1 272.5,312 
	271.8,311.7 270.6,311.4 269.8,311.3 269.3,311.6 268.7,311.6 268.2,311.4 267.7,311.3 267.1,311.4 266.7,311.6 266.2,311.4 
	265.9,311.2 265.7,310.8 264.9,310.2 263.1,310.2 262.7,310 262.5,309.6 262.2,309.2 261.7,309.2 261.3,309.4 261,310 260.6,310.2 
	259.9,310.1 259.4,309.7 259,309.8 258.7,310 258.6,309.7 258.6,309.4 258.3,309 258.1,308.8 258.3,308.4 258.6,308 258.2,307.3 
	257.9,306.9 258.1,306.5 258.6,306.1 259,305.6 259.7,305.4 260.2,305 260.9,304.4 261.4,304.4 261.5,304.9 261.4,305.6 
	261.5,306.1 261.5,306.6 261.1,306.9 261.4,307 261.8,307 262.3,306.9 262.9,307 263.3,307.3 263.5,307.6 264.2,308 264.9,308.1 
	265.1,307.8 265.4,307.4 265.8,307.4 266.1,307.7 266.5,307.6 267,307.4 267.4,307.4 267.9,307.6 268.6,307.7 269.4,308 
	269.8,308.4 270.2,308.5 270.6,308.5 270.9,308.6 271.4,308.5 271.8,308.5 272.5,308.6 272.7,308.8 273,308.9 273.3,309.2 
	273.5,309.3 274.3,309.3 274.7,309.2 275.1,309.2 275.3,309 275.5,309 275.8,309.2 275.9,309.4 275.9,309.6 276.1,309.8 
	276.3,309.7 276.5,309.7 276.5,309.6 276.6,309.3 276.6,309.2 276.9,308.8 277.1,308.5 277.1,307.7 277.5,307.6 277.7,307.6 
	277.8,308.1 277.8,308.8 278.2,309 278.5,308.9 278.9,308.6 279.1,308.5 279.4,308.4 279.7,308.4 279.9,308.6 280.2,308.8 
	280.5,308.8 280.5,308.2 280.3,308.1 280.2,308 280.1,307.7 280.1,307.4 279.9,306.9 279.8,307 279.7,307.3 279.4,307.3 
	279.3,307.2 279.4,306.9 279,306.9 278.9,307 278.6,307.2 278.5,307 278.2,307 278.2,305.8 278.6,305.3 279.3,304.6 279.5,304 
	280.2,303.8 280.5,303.7 281.1,303.4 281.5,303.3 282.1,302.9 282.5,303.7 283,304 283.1,304.5 283.7,305.4 283.9,305.7 
	284.3,306.2 284.6,306.6 284.7,307.4 284.9,308.5 285.3,309 285.4,309.3 285.8,310 285.7,310.8 286.3,311.3 286.9,311 287.3,310.5 
	287.4,310.1 287.5,309.3 287.8,309.2 288.1,309.2 287.9,308.8 288.1,308.4 288.6,308.2 289.4,308.1 289.4,307.6 289,307.3 
	288.3,307.2 287.8,306.8 287.4,306.2 287.3,305.8 287,305.6 286.5,305.4 286.1,304.8 285.7,304 285.5,303.8 285.4,303.4 
	285.3,303.8 284.9,303.7 284.7,303.6 284.5,303.2 284.5,303 284.3,302.6 284.1,302.2 284.2,302.1 284.1,302 283.5,301.8 
	283.3,301.8 283.1,302.2 282.9,302.2 282.7,302 282.9,301.6 282.7,301.4 282.5,301.4 282.3,301.2 282.1,300.9 281.8,300.9 
	281.5,301.2 281.1,300.8 281,300.5 281.3,299.8 281.5,299.4 281.7,298.9 281.5,298.4 281.8,297.8 282.2,297.3 282.6,296.5 
	283.1,296 283.8,296 284.2,296.1 284.2,296.6 284.5,297.3 285,297.2 285.9,297 286.5,297.3 286.7,298 286.9,298.6 287.1,299.2 
	287.7,298.6 287.5,298 287.5,297.4 287.1,297 286.9,296.4 287.4,295.7 287.9,295.4 288.3,294.9 288.3,294.4 288.1,293.8 
	287.5,293.3 286.9,292.4 286.2,291.3 285.9,291 285.7,290.2 285.5,289.4 285.5,288.4 285.4,288 285,287.7 284.5,287.6 283.8,287.6 
	283.7,287.7 283.4,287.8 283.3,287.8 283,287.6 282.6,287.4 282.5,287.3 282.5,286.8 282.7,285.6 282.6,285.3 282.3,284.9 
	282.3,284.9 281.9,284.9 281.7,285 281.5,285.2 281.5,285.4 281.3,285.8 281.5,286.2 281.5,286.2 281.8,286.5 281.8,286.6 
	281.7,286.6 281.3,286.3 281.3,286.2 281.1,286.2 281.1,286.5 281.3,286.9 281.4,287.7 281.3,288.1 281.5,288.4 281.9,288.5 
	282.1,288.9 282.7,288.9 283.1,289.4 283,290 282.6,290.5 282.2,290.9 282.2,291.3 281.8,291.8 281.4,292.4 280.9,292.1 281,291.3 
	280.9,290.6 280.3,290.2 279.9,290.1 279.4,289.8 279.1,290.2 279,290.8 278.9,291.7 278.3,291.7 278.2,291.3 277.5,290.9 
	277,290.5 276.1,290.6 275.1,290.6 274.5,290.1 273.7,290 273.1,290.1 272.6,290.1 272.3,290 271.7,289.7 271.3,289.7 271.3,289.3 
	271.1,288.9 271,288.5 270.5,288.4 270.2,288.5 270.1,288.9 269.7,289.7 269.4,290 269,290 268.9,289.8 268.9,289.4 268.6,289.2 
	268.3,289 268.1,288.9 268.1,288.6 268.3,288.5 268.6,288.5 268.6,287.8 268.9,287.6 269.3,287.6 269.7,287.7 269.9,287.7 
	269.9,287.2 270.1,287 270.3,286.8 270.6,286.6 270.9,286.5 271.3,286.5 271.5,286.6 271.8,286.6 272.1,286.4 272.5,285.8 
	272.7,285.3 273,284.8 273.3,284.6 273.8,284 274.2,283.8 274.5,284.2 274.7,284.6 275.5,285 276.1,285.2 276.6,285.6 277.3,285.4 
	277.7,285.7 278.1,285.7 278.3,286.2 278.7,286.2 278.6,286.5 278.3,286.8 278.9,287 279.1,287.2 278.7,287.6 279,288.1 
	279.4,288.4 279.7,288.6 280.1,288.6 280.2,288.4 280.6,288 280.5,287.6 280.1,287.4 279.7,287 279.5,286.5 279.8,286 279.8,285.9 
	279.7,285.7 279.7,285.7 279.7,285.3 279.4,285 279.3,284.8 279.3,284.4 279,284.2 279,283.7 279.1,283.2 279.1,283.2 279.1,283.2 
	279.1,283.2 279.3,283.1 279.4,283.1 279.5,282.9 279.5,282.9 279.5,282.9 279.5,282.9 279.7,283.2 279.8,283.2 279.8,283 
	279.8,283 279.9,282.8 279.8,282.6 279.9,282.5 279.8,282 279.8,281.6 279.9,281 279.8,280.5 279.3,280.4 278.7,281.2 278.5,281.6 
	277.8,281.7 277.3,281.4 276.9,281 276.9,280.5 277.1,280.1 277.5,279.3 277.7,278.9 277.3,278.8 276.7,278.4 276.2,278.3 
	275.7,277.9 266.2,277.5 266.3,276.9 266.5,276.4 266.6,276.1 266.6,275.7 266.7,275.2 266.6,275.1 266.6,274.9 266.5,274.8 
	266.5,274.4 266.7,274.1 267,273.9 267.4,273.7 267.7,273.6 268.2,273.7 268.6,273.6 269,273.5 269.4,273.2 269.3,273.1 
	269.1,273.1 268.9,272.9 268.5,272.8 268.5,272.5 268.7,272.5 268.9,272.3 268.9,271.9 269,271.6 269.1,271.5 269.4,271.3 
	269.7,271.1 269.9,270.9 270.2,270.7 270.5,270.4 270.9,270.3 271,270.1 271.1,270 271,269.5 271,269.3 271.2,269.2 271.2,269.2 
	271.3,269.2 271.3,269.2 271.3,269.2 271.5,269.3 271.5,269.9 271.7,270 272.2,270.1 272.3,270.1 272.5,270.8 272.7,271.2 
	273,271.7 273.4,272.3 273.8,272.7 274.1,272.4 274.1,272.3 273.9,272.1 273.9,271.9 273.8,271.6 273.8,271.3 273.5,270.9 
	273.8,270.5 274.1,270.7 274.3,271.1 274.7,271.7 275,272.1 275.3,272.3 275.4,271.9 275.3,271.7 275,271.3 274.9,271.2 
	274.7,271.1 274.3,270.5 274.2,270 274.2,269.5 274.5,269.1 275.1,268.6 275.1,268.5 275.5,268.4 275.8,268.5 275.8,268.5 
	276.1,268.5 276.9,268.5 277.4,268.8 277.8,269.1 278.1,269.2 278.2,269.6 278.2,270.1 278.3,270.4 278.3,270.7 278.1,270.8 
	277.8,271.1 277.5,270.9 277.3,270.8 276.9,270.7 276.6,270.4 276.5,270.1 276.1,270.1 275.7,270.5 275.3,270.9 275.3,271.1 
	275.5,271.3 276.5,271.5 277,271.7 278.1,271.7 279,271.9 279.5,271.7 279.8,271.9 280.2,272 281.1,272 281.5,271.9 281.8,271.6 
	281.8,271.2 280.6,271.2 280.1,271.1 279.8,270.9 279.4,270.9 279.3,270.7 279.5,270.3 279.8,269.9 280.2,269.5 280.5,269.2 
	280.9,268.8 281.4,268.4 281.8,268.4 282.2,268.3 282.3,268.1 282.5,267.9 283,267.1 283.3,266.7 283.8,266.3 284.2,266.3 
	284.5,266.7 284.5,266.9 284.3,267.3 284.1,267.7 283.9,268.3 284.1,268.5 284.3,268.4 284.6,268.4 285.1,268 285.8,267.7 
	286.1,267.5 286.3,267.2 286.6,267.3 286.6,267.5 286.7,267.5 286.7,267.9 286.6,268.5 287,268.7 287.3,268.7 287.5,268.4 
	287.8,268.4 287.9,268.7 287.8,268.9 287.9,269.1 288.1,269.2 288.3,269.1 288.5,269.1 288.7,268.9 288.9,268.9 289,268.8 
	289.4,268.8 289.4,268.7 289.5,268.5 289.7,268.4 289.9,268.5 290.2,269.1 290.3,269.3 290.6,269.5 290.9,269.7 291.3,270 
	291.8,270.4 292.1,270.7 292.3,270.9 292.6,271.3 292.7,271.3 293,271.7 293,272 293.1,272.3 293.5,272.3 293.7,272.1 293.7,272 
	293.8,271.7 293.8,271.5 293.9,271.2 293.9,270.7 293.8,270.4 293.7,270.1 293.4,270 293.3,269.9 293.1,269.6 292.9,269.5 
	292.3,269.3 292.1,269.2 292.1,268.9 291.9,268.8 291.8,268.8 291.5,268.7 291.1,268.7 290.7,268.3 290.6,268 290.5,268 
	290.1,267.7 289.8,267.6 289.4,267.6 288.9,267.3 288.6,267.2 288.5,266.9 288.2,266.7 288.4,266.3 288.5,266.3 288.5,266.3 
	288.7,266.4 289.3,266.4 289.4,266.5 289.4,266.3 289.7,266.1 290.2,265.7 290.6,265.6 290.7,265.7 291.5,266 292.2,266.5 
	292.9,266.7 293,266.9 292.9,267.1 292.9,267.2 292.9,267.3 293,267.3 293.4,267.2 293.7,267.2 293.7,267.3 293.5,267.6 
	293.7,267.7 293.9,267.7 294.2,267.9 294.3,267.7 294.1,267.3 294.1,267.2 294.7,267.2 294.9,267.5 295.3,267.6 295.5,268.1 
	295.8,268.1 295.8,268 295,266.8 294.9,266.5 294.9,266.4 295,266.3 295.3,266.3 295.7,266.5 295.7,266.5 295.8,266.9 296.2,266.9 
	296.3,266.8 296.7,266.8 296.7,266.5 296.6,266.5 296.3,266.4 296.2,266.5 296.1,266.5 295.8,266.3 295.8,266.1 295.9,265.9 
	296.5,265.6 297,265.5 297.1,265.3 297.1,265.3 297.3,265.2 297.3,264.9 297,264.9 297,264.5 297.1,264.5 297.1,264.3 297,264.4 
	296.7,264.4 296.7,264.9 296.9,265.1 296.7,265.2 296.3,265.3 295.9,265.6 295.5,265.6 295.3,265.9 295.1,266 295,265.9 295,265.6 
	294.9,265.5 294.7,265.5 294.5,265.7 294.6,266 294.6,266.3 294.2,266.3 293.9,266.5 293.7,266.5 293.4,266.8 293.3,266.8 
	292.9,266.4 292.6,266.3 292.3,266.3 292.1,266 290.9,265.5 290.5,265.3 290.2,265.3 289.8,265.6 289.7,265.6 289.7,265.3 
	289.9,264.8 289.9,264.7 290.2,264.5 290.3,264.4 290.3,263.7 290.2,263.5 290.1,263.6 289.9,264.3 289.5,264.4 289.1,264.5 
	288.7,264.5 288.5,264.4 288.3,264.3 288.1,264.1 287.7,264 287.5,263.7 287.1,263.6 287.1,263.2 286.9,263.1 286.5,262.9 
	286.3,262.7 286.7,262.5 287.1,262.4 287.3,262.1 286.7,262.3 286.3,262.3 286.2,262.4 286.1,262.3 285.9,262 285.7,261.9 
	285.7,261.6 285.4,261.5 285,261.3 284.5,261.2 284.3,261.3 283.9,261.3 283.7,261.6 283.3,262 282.9,262.1 282.5,262.7 
	282.5,262.9 282.3,263.2 282.5,263.2 282.9,263.5 283.3,263.5 283.4,263.6 283.5,263.7 283.1,263.7 283.1,263.9 283,264 282.7,264 
	282.7,263.9 282.6,263.6 282.2,263.6 282.2,263.9 282.3,263.9 282.3,264 282.2,264.1 282.3,264.3 282.3,264.4 282.1,264.4 
	282.2,264.5 282.2,264.7 282.1,264.8 281.9,264.8 281.9,264.5 281.8,264.4 281.8,264.3 281.7,264.1 281.5,264 281.3,263.7 
	281.3,263.5 281.1,263.3 281,263.2 281.3,263.1 281.3,262.9 281.1,262.7 281.3,262.5 281.3,262.4 281.1,262.1 281,262.1 281,261.9 
	280.7,261.9 280.7,262 280.6,262 280.6,262.4 280.3,262.7 280.3,262.8 280.2,262.9 280.2,263.2 280.1,263.2 280.1,263.6 
	280.3,263.7 280.5,263.7 280.6,264 280.6,264.1 280.2,264.1 280.2,264.4 280.3,264.5 280.5,264.5 280.5,264.7 280.6,264.8 
	280.7,264.9 280.9,265.1 280.9,265.9 280.6,266.1 280.3,266.4 280.1,266.7 279.8,267.3 279.4,267.7 279,267.9 278.9,268.3 
	278.2,268.3 278.1,268 277.7,267.6 277.5,267.3 277.1,266.9 276.9,267.1 276.6,267.5 276.3,267.5 276.3,267.2 276.7,266.8 
	277.1,266.5 277.4,266.5 277.7,266.1 277.8,265.5 277.7,264.8 277.4,264.1 277.3,263.7 277.1,263.2 276.9,262.9 276.7,262.8 
	276.5,262.5 276.5,262.8 276.3,262.9 276.3,263.2 276.2,263.2 275.9,263.3 275.7,263.7 275.5,264 275.5,264.3 275.4,264.4 
	275.4,264.5 275.3,264.8 275.3,265.2 275.1,265.3 275.1,266 275.3,266.3 275.3,266.5 275.1,266.7 274.9,266.7 274.7,266.8 
	274.2,267.1 273.8,267.3 273.5,267.2 273.4,267.2 272.6,266.9 272.5,266.8 272.1,266.8 272.3,266.5 272.3,266.4 272.2,266.4 
	271.8,266.7 271.7,266.7 271.5,266.5 271.5,266.3 271.7,266.1 271.7,265.9 271.3,265.6 271,265.3 271.1,264.8 270.9,264.4 
	270.7,263.9 270.5,263.7 270.2,263.5 270.3,262.9 270.2,262.8 269.9,263.3 270.1,263.6 270.2,263.7 269.9,264 269.4,264.1 
	269,264.3 268.3,264.5 268.3,264.8 268.1,265.2 267.8,265.6 267.8,265.9 267.3,266.3 266.9,266.1 266.6,266.1 266.2,266.4 
	265.5,266.5 265.1,266.5 265,266.7 264.9,266.9 265.1,267.2 265.3,267.5 265.7,267.7 266.3,268 266.5,268.5 266.5,268.9 
	266.1,268.9 265.8,268.7 265.3,268.7 265,268.8 264.2,268.5 263.5,268.1 263,267.9 262.1,267.6 261.8,267.7 262.1,268.1 
	262.3,268.5 263.3,269.1 264.3,269.6 264.7,269.9 265.3,270.4 265.1,270.8 264.2,270.8 263.7,270.9 263.3,270.8 263,270.7 
	262.7,270.3 262.6,269.7 261.9,269.2 261.4,268.4 260.9,267.7 260.6,267.3 260.2,267.2 259.8,267.7 259.8,268.1 260.3,268.5 
	260.7,269.2 261.1,270 261.4,270.5 262.1,271.5 262.3,272.1 262.5,272.3 262.9,272.5 263.4,272.7 263.5,273.1 263.8,273.3 
	263.7,273.9 263.4,274.4 263.3,275.1 263,275.7 262.9,275.9 262.6,276.3 262.2,276.7 261.8,277.2 261.8,277.3 261.7,277.6 
	261.5,278 261,278.4 260.7,278.7 260.5,278.9 260.2,279.2 260.2,279.4 260.3,280 260.2,280.5 260.2,280.9 259.9,281.6 259.8,282 
	259.7,282.4 259.7,282.6 259.5,283.2 259.7,283.3 259.8,283.2 260.1,282.9 260.6,282.8 260.7,282.9 260.9,283.3 260.7,283.7 
	260.6,284.2 260.3,284.8 259.9,284.9 259.8,284.6 259.5,284.2 259.1,284 258.9,284 258.9,284.2 259.4,284.6 259.5,284.9 259.5,285 
	258.3,285 257.9,285.2 257.7,285.7 257.5,286.2 257.4,286.1 257,286 256.7,285.6 256.3,285.4 256.1,285.2 255.8,285.2 255.8,285.4 
	256.2,285.8 257.1,286.6 257.3,286.9 256.7,287.4 256.3,287.7 256.3,288.1 256.2,288.2 255.9,288.8 255.8,288.9 255.4,289 
	255.1,288.5 255,288.5 254.9,288.6 255,289.4 254.6,290.1 254.3,290.2 253.8,289.8 253.1,289.6 252.1,288.5 251.7,288.1 
	251.1,287.7 251,287.7 250.9,287.8 251.1,288.1 251.1,288.6 251.8,288.8 252.1,288.9 252.3,289.4 252.3,289.7 252.2,289.8 
	251.3,289.7 251,289.8 251,290 251.5,290 252.1,290.1 252.9,290.1 253.4,290.4 254.1,290.5 254.3,290.6 254.5,290.9 254.3,290.9 
	253.8,291.4 253.4,292 253.1,292.2 253,292.4 252.9,292.9 252.6,293.4 252.2,293.8 251.8,294.2 251.5,294.8 251.3,295.4 
	250.7,296.2 250.6,296.6 250.3,297.3 250.1,298 250.1,298.4 249.5,298.6 249.1,298.8 249,299.2 249,299.8 248.7,300 248.1,300 
	248.1,300.5 247.8,301.4 246.7,302.4 245.9,304.1 245.8,304.4 245.3,304.6 245.4,304.5 245.4,304 245,304.1 244.6,304.2 
	244.3,304.4 244.2,304.5 243.7,304.6 243.1,304.8 242.6,304.9 242.1,305.2 241.5,305.4 241,305.4 240.9,305.3 240.2,305.6 
	239.5,305.7 239,305.6 238.5,305.8 238.1,306.1 237.4,305.8 236.9,305.6 235.3,304.8 234.5,304.8 232.5,303.8 231.1,302.8 
	230.2,302 229.9,301.2 229.5,301 228.9,301 228.3,301.2 227.1,300.9 226.6,300.5 225.9,300.1 225.1,299.6 225.1,299.7 225,300 
	224.6,300.4 224.5,300.8 224.3,301.2 224.3,301.4 224.2,301.8 224.1,302.1 224.1,302.8 223.7,303.3 223.4,303.3 223,303.4 
	222.6,303.2 222.3,302.9 221.9,302.8 221.4,302.9 221,302.6 220.9,302.1 220.6,302.1 220.3,302.2 220.2,302 219.4,302 219,302.2 
	218.7,302.6 218.7,304.2 219.1,304.9 219.5,305.4 219.8,306 220.2,306.4 220.7,306.4 221.3,306.2 221.5,306.5 221.8,307 
	222.2,307.3 222.5,307.7 222.2,308.2 221.8,308.4 221.4,308.2 221.1,308.1 220.5,308 219.9,307.7 219.5,307.3 219.3,306.9 
	218.9,306.4 218.7,306.1 218.3,306.1 217.9,306.4 217.8,306.6 218.2,307.2 218.2,307.6 217.8,307.7 217.3,308 216.7,308.2 
	216.5,308.6 215.9,308.9 215.3,308.9 215,309 214.7,309.4 214.1,309.7 213.8,310 213.9,310.5 214.1,311 214.6,311.3 214.7,311.6 
	214.3,311.7 213.9,311.7 213.5,312 213.5,311.4 213.1,311.2 213,311.2 213,311 212.9,310.8 212.5,310.5 212.1,310.1 211.8,309.8 
	211.8,309.8 211.5,309.2 211.4,308.6 211.4,308.5 211.3,308.1 211.1,307.8 210.9,307.4 210.7,307.3 210.7,307.2 210.5,306.9 
	210.1,306.8 210.1,306.6 209.7,306.6 209.4,306.8 209,306.6 208.7,306.8 208.3,306.8 208.1,306.9 207.7,306.6 207.3,306.8 
	206.9,306.6 206.3,306.2 205.8,306.1 205.4,305.8 204.7,304.8 203.5,304.8 202.9,305.8 202.5,306.4 202.2,306.4 201.8,306.2 
	201.4,306.5 200.6,306.4 200.5,306.5 200.3,306.8 200.2,306.9 199.9,306.9 199.7,306.6 199.4,306.5 199,306.4 198.7,306.2 
	198.3,306.4 197.9,306.4 197.7,306.5 197.4,306.5 197,306.2 196.9,306.2 196.6,306.1 196.3,306 195.8,306.4 195.4,306.2 
	194.9,306.4 193.9,305.8 193.4,305.8 193,305.6 192.6,305.7 192.3,305.7 192.2,305.6 192.2,305.5 192.2,305.5 192.1,305.2 
	191.9,305 191.5,305 191.3,304.9 191.1,304.9 191.4,304.6 191.3,304 191.1,303 191,302.2 191,301.3 191.3,300.8 191.4,300 
	191.4,299.4 191.1,298.8 191.4,298.4 191.3,298.1 191.7,298 192.7,298 192.9,297.8 193.1,297.7 193.3,297.4 193,297.3 192.5,297.3 
	192.5,297 192.7,296.9 193,296.6 192.9,296.4 192.7,296 192.9,295.6 192.9,295.4 193.1,295.3 193.4,294.8 193.5,294.4 193.7,294.1 
	194.1,294.2 194.7,294 194.9,293.7 194.9,293 195.3,292.6 195.4,292.4 195.4,292.1 195,292.1 194.5,292.2 194.3,292.1 193.9,291.7 
	193.3,291.4 193.1,291.3 192.9,291.2 192.9,290.9 193,290.9 193,290.8 193.1,290.6 193.3,290 193.7,289.4 194.1,288.9 194.2,288.5 
	194.5,288.2 194.9,288.2 195.1,287.8 195.5,288 195.7,288.1 195.9,288 196.3,287.8 196.6,287.6 196.7,287 196.7,285.7 196.3,285.6 
	195.9,285.7 195.7,285.7 195.4,286 195.1,286.1 194.7,286.1 194.6,286 194.6,285.7 194.5,285.4 194.6,285.2 194.7,285 194.5,284.8 
	194.5,284.2 194.6,283.8 194.7,283.2 194.9,282.9 195.1,282.5 195.4,282.2 195.7,282 195.9,281.4 195.9,281.2 196.1,280.8 
	196.3,280.6 196.7,280.6 197.1,280.5 197.4,280.6 197.8,280.8 198.3,280.8 198.9,280.9 199.3,281.2 200.1,281.7 200.5,281.8 
	200.6,282.1 200.7,282.5 201,282.8 201,283.6 201.1,283.7 201.5,283.7 201.8,284 202.1,284.4 201.9,284.6 201.9,284.9 203,284.9 
	201.8,285.3 201.5,285.6 201.3,285.8 201.3,286.1 201.7,286.1 201.9,286 202.3,286 202.7,285.8 203.1,285.8 203,286.1 203.1,286.5 
	203.3,286.6 203.3,287.4 203.5,287.7 203.8,287.4 204.1,286.9 204.1,286.6 204.2,286.1 204.5,285.4 204.6,285.4 204.7,285 
	205,284.8 205.3,284.5 205.4,284.2 205.4,283.8 205.3,283.2 205,282.6 204.9,282.5 204.7,282.1 204.7,281.7 205.8,281.4 
	206.1,281.6 206.3,281.6 206.6,281.7 206.9,281.8 207.3,282.1 207.4,282.2 207.3,282.5 206.9,282.6 206.6,282.6 206.3,282.8 
	206.3,283.3 206.5,283.6 206.5,284 206.2,284.2 206.5,284.6 206.7,284.6 207.1,284.5 207.4,284.2 208.2,284.2 208.2,285.2 
	208.5,285.4 208.5,285.8 208.3,286.1 208.3,286.4 208.5,286.6 208.7,286.8 209.1,286.9 209.4,286.8 209.5,287 209.8,287.4 
	209.9,287.7 210.3,287.6 210.9,287.7 211.5,287.6 211.8,287.3 211.9,286.9 211.7,286.6 211.1,286.6 210.7,286.2 210.9,285.7 
	211.3,285.4 211.5,285.2 211.8,284.8 212.1,284.4 212.5,284.2 212.7,283.8 213.3,284 213.5,283.6 213.7,283 214.2,282.4 214.3,282 
	214.2,281.7 213.7,281.8 214.3,281.4 214.9,281 215.4,280.4 215.8,279.9 215.9,279.5 216.1,279.2 215.5,278.5 215.5,278.4 
	216.1,277.9 216.3,277.9 216.5,278.4 216.7,278.4 217,278.3 217.4,277.7 217.8,276.9 217.9,276.7 217.9,276.3 217.8,275.7 
	217.8,275.2 217.9,274.8 218.1,274.4 217.9,274 217.9,273.9 218.1,273.6 218.1,272.8 218.6,272.4 219.1,272 219.4,271.9 219,271.6 
	218.6,271.6 218.9,271.2 218.9,270.8 218.5,270.8 218.1,270.5 218.1,269.2 218.2,268.7 218.3,268.3 218.6,268.1 219,267.6 
	219.3,267.1 219.3,266.4 219,266.1 218.9,265.9 218.5,265.6 218.1,265.3 217.3,265.2 217.3,264.7 217.4,264.4 217.5,264.3 
	217.4,263.9 217.7,263.9 217.9,264 218.2,264.1 218.5,264.3 218.6,264.5 218.7,264.8 219,265.1 219.3,265.3 219.5,265.9 
	220.2,265.9 220.2,264.1 220.3,263.7 220.3,263.3 220.1,263.1 219.5,263.1 219.4,262.9 219.3,262.5 218.9,262 218.9,261.5 
	219,260.9 219.3,260.9 219.8,260.7 219.7,260.3 219.7,258.9 219.6,258.5 219.5,258.3 218.9,258.1 218.7,257.7 218.9,257.5 
	218.9,257.2 218.6,257.1 218.3,256.8 218.3,256.5 218.5,256.4 219.1,256.1 219.7,255.9 220.1,255.3 220.1,254.9 219.8,254.5 
	219.7,254.1 220.1,254 220.2,253.7 220.2,252.5 219.5,252.4 218.6,252.4 218.2,252.1 218.2,251.9 218.6,251.6 218.7,251.1 
	218.1,250.3 218.3,249.6 219.1,249.7 219.9,249.5 219.9,248.8 219.4,248.1 219.3,247.3 219.3,246.5 219.1,246.1 218.9,246.1 
	219,245.9 218.2,245.3 216.7,245.9 215.9,246 215.1,245.5 215.1,244.8 215,244 214.5,243.2 214.5,242.3 215.1,241.7 214.3,241.5 
	213.7,241.2 213.3,240.8 212.3,241.6 211.4,242.1 210.6,240.3 209.9,238.3 209.4,237.6 209.1,237.2 208.9,237.1 208.6,237.1 
	208.3,237.2 207.8,238 207.3,238.5 206.7,239.2 206.3,239.7 205.9,240.3 205.4,240.5 205.4,240.3 204.5,240.3 204.6,240.7 
	203.9,240.7 203.8,241.3 203.7,241.6 203.4,241.7 202.9,242 202.7,242.1 202.6,242.4 202.5,242.9 202.2,243.2 201.8,243.5 
	200.9,243.9 200.5,243.9 200.1,243.7 199.9,243.6 199.8,243.3 199.7,242.7 199.5,242.4 199.4,242.4 199.3,242.5 198.5,242.8 
	197.8,242.3 197.8,241.6 197,240.8 196.5,241.3 196.5,242.1 196.3,242.9 195.5,243.5 194.9,243.6 194.3,243.3 193.9,242.9 
	193.7,242.9 193.3,243.1 192.9,242 192.3,242 191.7,241.1 192.6,240.1 193,239.9 193.7,240 194.2,239.6 194.1,238.8 193.5,238.9 
	192.7,238.9 192.9,238.5 193.1,238 193.1,236.5 194.2,235.9 195.1,234.9 195.3,234.1 196.1,233.6 196.6,233.7 198.2,233.7 
	198.5,233.6 198.6,232.9 198.3,232.5 197.7,232.1 197.3,231.2 197.3,230.3 197.7,229.6 198.3,229.3 198.7,229.6 199.3,230.3 
	199.3,231.3 199.9,231.1 201,229.9 200.9,229.2 201.3,228 201.4,227.1 201.3,226.3 201.3,225.2 201.9,224.5 201.9,223.5 
	202.1,222.4 201.5,221.6 201.3,221.1 200.1,219.9 199.5,219.7 198.6,219.3 198.2,219.9 196.5,220.5 194.5,220.5 193.5,220.8 
	191.7,221.6 190.6,222.4 189.9,223.5 188.6,224 188.1,224.4 188,225.3 187.7,226.3 186.9,227.3 186.6,228.8 185.8,229.7 
	184.9,230.5 183,231.5 180.6,231.5 179.6,231.3 178.6,231.2 177.6,230.8 176.4,229.7 175.7,229.2 174.8,227.7 173.8,226.8 
	173.2,225.6 172.2,224.3 171.4,223.1 171.2,222.5 171.6,222 171.6,221.5 171.4,220.8 171.3,220.4 170.9,219.6 170.4,219.6 
	170,219.2 169.4,219.1 169.2,218.7 168.9,218.1 169.4,217.6 169.6,217.3 170.1,217.3 170.9,217.7 171.7,217.7 172.5,217.2 
	172.8,216.7 172.9,216 172.4,215.6 172.1,215.2 172.1,214.7 172,214.1 171.6,214 171.2,214 170.6,214.1 170.2,213.5 170.1,212.9 
	169.7,212.8 169,213.3 168.6,213.5 168.6,212.1 168.4,211.1 168,210.1 166.9,209.2 166.5,208.5 166.4,208.1 166.5,207.8 
	166.8,206.9 167.4,205.7 167.6,205.1 167.7,204.5 167.8,204.3 167.8,204.3 168.4,203.2 168.6,202.8 168.9,202.3 168.9,201.6 
	168.2,201.2 168.1,201.4 167.6,201.9 166.9,202.1 166.2,202 166.1,201.7 166.1,201.3 165.8,200.5 166.6,200.5 167,200.4 
	167.3,199.7 167.3,199.6 167.4,199.3 167.4,198.7 167.3,198.5 167.3,198.1 167.6,197.9 167.7,197.3 167.8,196.9 167.8,196 
	167.7,195.6 167.4,195.3 167,195.1 168,194.7 168.1,194.7 168.6,194.4 169.6,194.3 170.2,194 171,193.5 171.7,193.3 173.2,193.3 
	173.8,193.7 174.8,194.1 174.8,193.5 175.6,193.1 177,192.9 178.1,193.6 179.6,193.9 180.8,193.6 182.2,193.5 183.4,194.5 
	183.4,195.2 183.8,196.4 184.5,197.7 184.9,199.1 185,200.5 186.8,201.9 188.3,202.3 188.9,202.8 189,203.2 189,204 189.3,204.4 
	189.7,205.2 189.5,205.7 189,206 188.3,206.1 187.8,205.7 188,206.4 188,207.3 188.1,208.3 188.6,209.1 189.7,208.9 190.7,209.1 
	191,209.5 191.1,209.7 191.5,210 192.3,209.9 193,209.5 193.7,208.8 193.9,209.3 193.5,209.9 193,210.8 192.9,211.3 193.3,212.8 
	194.2,212.5 194.7,212.3 195.3,212.4 195.5,212.7 195.3,213.1 195.1,213.7 194.5,214 194.2,214.7 194.2,215.3 194.6,216.4 
	195.9,216.7 197.1,216.5 197.4,216.3 197.8,215.5 197.9,214.7 197.9,214.5 197.8,213.6 197.8,213.5 199.8,213.5 199.8,213.3 
	201,212.5 202.3,211.7 202.7,211.1 203.8,210.5 204.6,210.1 204.5,209.5 204.1,208.3 203.4,206.9 203.7,205.6 204.1,204.5 
	204.9,204 205.4,203.2 205.4,200.9 206.3,200.3 207.1,199.6 208.2,199.2 208.9,199.2 210.1,199.9 210.1,201.1 209.9,201.9 
	210.3,202.7 210.7,202.8 211.9,202.8 212.9,202 213.7,202.5 213.9,203.6 213.7,204.3 213.1,205.3 214.1,206.4 214.6,206.8 
	214.6,207.7 215.4,208.4 215.8,208.1 216.3,207.7 217,208 217.7,209.3 218.1,210.4 218.6,210.4 219.1,209.5 219.7,208.7 
	220.9,207.5 221.5,205.9 222.6,204.5 223.3,204.5 223.7,204.9 222.9,205.6 222.3,206.3 222.2,206.9 222.1,208 221.7,208.9 
	221.3,209.6 220.3,210.4 219.4,212.4 218.5,213.6 218.9,214.8 219.8,214.7 220.5,214.1 221.7,212.9 222.3,211.9 223.4,210.4 
	224.6,210.4 224.7,211.3 224.2,212 223.4,212.8 223.8,213.3 223.8,213.6 224.2,213.7 224.5,214 224.7,214 225.1,214.1 225.7,214.1 
	226.1,214.5 226.5,215.2 227,215.6 227.4,215.6 227.8,215.3 228.1,215.1 228.3,214.9 228.5,214.9 228.9,214.7 229.1,214 
	229.1,213.7 229.5,213.2 229.9,213.7 229.9,214.3 229.8,214.7 229.5,215.2 229.7,215.2 229.9,215.3 230.6,215.5 231.4,215.3 
	232.1,215.1 232.5,214.9 233.1,214.8 233.8,214.9 234.3,214.9 234.6,214.8 235.5,214.4 237,214.3 237.4,213.9 238.3,213.3 
	239.5,213.2 240.7,213.3 241.9,212.8 243.4,213.2 244.7,212.5 245.1,212.7 246.7,213.7 247.5,213.9 249.1,214.8 250.6,215.5 
	251.5,215.5 252.1,214.7 251.9,213.5 252.1,212.1 253,210.8 253.3,210.7 253.8,210.3 253.9,210.3 253.9,209.6 253.4,208.8 
	252.9,207.2 253.5,206 254.5,204.9 254.5,204 254.9,202.5 254.6,200.8 255.1,199.3 255.1,198.1 254.1,197.5 254.1,195.7 255,195.7 
	256.6,196.5 256.3,194.8 256.3,194.1 256.2,193.9 256.7,194 257.9,194 258.7,194.7 259.7,194.5 259.1,194.3 258.2,193.5 
	257.7,193.3 257,192.7 256.5,192.4 255.7,191.1 255,190.5 254.1,190.5 253.8,190 252.2,188 252.1,186.8 253,185.5 253.7,185.5 
	253.7,186.7 254.1,187.5 255.3,188.1 256.3,187.7 256.6,186.9 256.7,186.3 257.4,186.3 257.7,186.5 257.9,187.1 258.5,187.5 
	259.1,187.5 259.8,186.8 259.1,186.8 258.7,186.4 258.6,185.7 259.1,185.1 259.4,184.8 260.2,183.6 260.6,182.4 259.9,181.8 
	259.3,181.9 259,182.3 258.6,181.5 257.8,180.7 257.4,180.3 257.9,180 259,179.2 259.8,179 260.9,179.1 261.8,180 262.6,180.3 
	265,180.8 266.9,182.3 267.1,182 267.3,181.9 267.5,181.6 267.7,181.1 267.7,179.6 267.8,179.4 268.4,178.6 268.4,178.6 
	268.4,178.6 268.6,178.3 268.7,177.9 268.9,177.5 268.9,177.5 268.9,177.1 269.3,176.6 269.4,176.3 269.4,176.3 269.7,175.8 
	270.2,175.2 270.3,174.7 270.5,173.9 271,173.4 271,173.4 271,173.4 271,172 271.3,171.8 271.4,171.5 271.4,171.5 271.4,170.8 
	271.5,170.4 271.8,170.2 272.2,169.6 272.5,169.4 272.7,169.4 273,169.1 273.4,168.2 273.8,167.6 273.9,167.5 274.2,166.7 
	274.6,166.4 274.5,166.3 274.7,166.2 276.1,165.6 276.6,165.4 276.9,164.8 276.9,164.7 277.1,164.6 277.1,163.9 277.3,163.5 
	277.9,163 278.2,163.2 278.5,162.8 278.6,162.3 278.9,161.8 278.9,161.7 279,161.5 279.4,161.1 279.4,161.1 279.7,160.8 
	279.8,160.7 280.6,159.1 280.6,158.7 281.7,159.9 282.6,161 282.3,161.9 282.6,162.4 283.3,162.6 283.8,163.2 285,164.6 284.7,166 
	284.6,168.7 285.1,170 285.9,169.9 286.5,169 287.9,167.5 287.7,165.4 287.5,163.5 287.4,158.3 286.7,156.7 286.2,154.4 285.7,154 
	286.1,153.1 286.3,152.4 286.7,151.6 286.5,151.1 286.6,150.2 286.6,149.6 286.9,148.6 286.9,147.6 286.1,147.1 286.1,146.3 
	286.6,146 287.3,146 287.8,145.9 288.5,145.6 288.7,145.1 289.1,144.3 289.4,143.8 289.4,143 290.2,143.1 290.5,143.8 290.3,144.6 
	290.2,145.2 290.1,146.3 289.4,147.9 289.1,148.8 288.6,149.9 288.1,151.2 287.8,152.2 287.5,153.4 287.8,153.5 288.2,153.8 
	288.5,154 289.5,153 290.1,151.5 290.3,150 290.7,149 291,148 291.8,147.4 292.5,147 292.7,146.4 292.7,146 293.3,144.4 
	292.5,142.8 292.9,142.3 293,142.2 293.1,142.2 293.4,142.3 293.9,141.4 293.3,141 293.1,140.6 293,140.2 292.7,139.6 292.5,138.8 
	292.3,138.2 291.7,137 291.5,136 291.7,135.4 291.7,133.8 291.5,133.4 291.8,133 291.9,132.8 292.3,132.7 292.7,133.1 292.9,133.9 
	292.9,134.3 293.8,134.3 294.5,134.2 294.6,133.9 294.5,132.2 293.5,132.3 292.9,131.5 292.2,131.1 291.9,130.6 292.1,130.2 
	292.2,129.4 291.3,129.2 291.5,129 291.7,128.6 291.8,128.6 291.8,128.4 291.7,128.2 291.7,128 292.1,128 292.9,127.9 293.1,127.8 
	294.1,127.9 294.5,128.3 295,129.1 295,129.2 296.2,128.8 297.9,128 298.9,127.9 299.8,128.3 300.7,129.5 301.7,130 302.2,130 
	303.1,129.9 304.2,129 304.9,128.3 305.5,127.9 305.9,127.8 306.5,127.6 306.5,128 306.3,129 306.5,129.2 307,129.2 307.9,128.7 
	308.3,128.6 308.9,129.1 309.4,129.2 310.6,129.8 310.6,131 311.2,130.8 311.9,131.1 312.4,131.1 313.1,130.4 313.9,129.6 
	314.2,129.2 314.6,129 315.2,128.2 316,127.5 316.7,126.6 317.1,125.8 317.6,125.8 318,125.1 318.4,124.6 318.6,123.9 318.2,123.1 
	318,122.6 318,122.6 317.9,122 317.9,121 317.6,120.3 318.2,119.2 319.5,120.2 320.2,120.4 321.6,121.2 322.4,121.5 323.5,120.8 
	324.3,120 325.6,119.8 326.2,119.2 326.8,118.2 327.1,117.4 327.4,116.6 327.5,116.2 328.2,115.4 329,114.6 329,114 328.8,113.6 
	328.7,113 328.6,112.3 328.4,111.8 328.3,111.4 328.2,111.1 328.2,110.8 328.3,110.6 328.8,110.4 329.4,110.3 329.6,109.4 
	329.8,108.8 330.2,108 330.8,107.6 331.4,107.4 331.6,107.1 331.8,107.2 331.8,107.5 331.5,107.8 331.6,108.2 331.9,108.3 
	332.3,107.9 332.4,107.5 332.8,107.1 333.1,106.7 333.5,106.6 333.6,107 333.5,107.4 333.5,107.9 333.8,108.3 334,108.4 
	334.3,108.2 334.6,107.8 334.8,107.6 334.8,107.5 335.5,107.2 335.2,107 335.2,106.7 335.4,106.3 335.6,105.9 335.6,105.6 
	335.5,105 335.1,104.4 334.7,104 334.7,103.4 335,103.2 335.5,102.8 335.6,102.8 335.6,102.7 335.8,102.6 335.9,102.3 336.2,102.2 
	336.4,102 336.3,101.8 336.3,101.5 336.4,101.5 336.8,101.4 337,101.2 337,101 337.1,100.6 337.2,100.4 337.6,100.2 337.6,100 
	337.8,100.2 338,100.2 338.3,100 338.4,99.9 338.8,99.9 338.8,100 339,99.9 339.1,99.8 339.2,99.8 339.4,99.5 339.4,99.4 
	339.6,99.2 339.9,99 339.8,98.7 339.8,98.3 339.2,98 339.2,97.8 339.5,97.6 340,97.5 340,97.8 339.9,97.9 339.9,98.2 340.2,98.2 
	340.3,98.3 340.2,98.8 340.4,99 340.4,99.5 340.6,99.5 340.7,99.2 340.8,99.2 341,99.6 341.1,99.8 341.1,99.2 340.8,98.8 
	340.7,98.2 341.1,98.6 341.5,98.6 341.5,98.4 340.8,98 340.8,97.8 341,97.5 341.4,97.4 341.8,97.8 342.2,97.8 342,97.6 341.9,97.4 
	342,97.4 343.1,97.6 344.6,98.2 345.2,98.6 346,98.8 347,99.4 347.6,99.6 348.2,99.8 348.6,99.6 348.8,99.8 349.5,100.4 
	350.4,101.1 350.8,101.2 351.1,101.5 351.6,101.8 352,102 352.2,102.2 352.3,102.2 352.3,102 352,101.8 351.6,101.5 351.5,101.2 
	352.2,101.4 352.6,101.6 353.1,101.5 354,102.3 354.8,102.3 354.4,101.9 353.8,101.5 353.8,101 353.9,100.8 354.2,101.1 
	354.6,101.4 355.4,102.2 355.1,102.4 355.5,102.6 355.8,102.6 355.9,102.4 355.4,101.8 354.4,101 355.1,101.1 355.6,101.1 
	356,101.9 356.3,102.3 356.3,101.8 356.4,101.4 357.1,101.5 357.8,101.4 358,101.5 358.2,101.9 358.3,101.8 358.6,101.8 
	359.1,102.2 359.4,102.3 359.5,102.6 359.8,102.8 360,103.2 "/>
</svg>
